<svg id="Layer_1" enable-background="new 0 0 512 512" viewBox="0 0 512 512" xmlns="http://www.w3.org/2000/svg"><g><path d="m497 241h-226v-226c0-8.284-6.716-15-15-15h-80.333c-8.284 0-15 6.716-15 15v42.202h-65.333c-8.284 0-15 6.716-15 15v16.593h-65.334c-8.284 0-15 6.716-15 15v152.205c0 8.284 6.716 15 15 15h226v226c0 8.284 6.716 15 15 15h80.334c8.284 0 15-6.716 15-15v-42.202h65.333c8.284 0 15-6.716 15-15v-16.593h65.333c8.284 0 15-6.716 15-15v-152.205c0-8.284-6.716-15-15-15zm-467-122.205h50.334v122.205h-50.334zm80.334-31.593h50.333v153.798h-50.333zm80.333-57.202h50.333v211h-50.333zm130.667 452h-50.334v-211h50.334zm80.333-57.202h-50.333v-153.798h50.333zm80.333-31.593h-50.333v-122.205h50.333z"/><path d="m323.84 64.106c3.838 0 7.678-1.465 10.606-4.394l8.67-8.669c3.283 82.048 71.045 147.789 153.884 147.789 8.284 0 15-6.716 15-15s-6.716-15-15-15c-66.19 0-120.435-52.123-123.848-117.478l7.566 7.566c5.857 5.858 15.355 5.858 21.213 0 5.858-5.857 5.858-15.354 0-21.213l-33.342-33.344c-4.946-5.018-14.903-6.566-21.218 0l-34.137 34.136c-5.858 5.857-5.858 15.354 0 21.213 2.928 2.93 6.767 4.394 10.606 4.394z"/><path d="m177.554 452.304-8.669 8.669c-3.283-82.047-71.046-147.788-153.885-147.788-8.284 0-15 6.716-15 15s6.716 15 15 15c66.192 0 120.436 52.124 123.849 117.479l-7.567-7.566c-5.857-5.857-15.355-5.857-21.213 0-5.858 5.858-5.858 15.355 0 21.213l33.343 33.342c5.262 5.365 15.35 6.212 21.218 0l34.136-34.136c5.858-5.857 5.858-15.355 0-21.213-5.857-5.857-15.355-5.857-21.212 0z"/></g><g/><g/><g/><g/><g/><g/><g/><g/><g/><g/><g/><g/><g/><g/><g/></svg>