<?xml version="1.0" encoding="UTF-8"?>
<svg id="Outline" xmlns="http://www.w3.org/2000/svg" version="1.1" viewBox="0 0 64 64">
  <!-- Generator: Adobe Illustrator 29.3.1, SVG Export Plug-In . SVG Version: 2.1.0 Build 151)  -->
  <path d="M28,35H12c-.54999,0-1,.45001-1,1v16c0,.54999.45001,1,1,1h16c.54999,0,1-.45001,1-1v-16c0-.54999-.45001-1-1-1ZM27,51h-14v-14h14v14Z"/>
  <path d="M23,42c0-1.65002-1.34998-3-3-3h-2c-.54999,0-1,.45001-1,1v8c0,.54999.45001,1,1,1h2c1.65002,0,3-1.35004,3-3,0-.77002-.29999-1.47003-.78003-2,.48004-.53003.78003-1.23004.78003-2ZM20,47h-1v-2h1c.54999,0,1,.45001,1,1s-.45001,1-1,1ZM20,43h-1v-2h1c.54999,0,1,.45001,1,1s-.45001,1-1,1Z"/>
  <path d="M52,35h-16c-.55273,0-1,.44775-1,1v16c0,.55225.44727,1,1,1h16c.55273,0,1-.44775,1-1v-16c0-.55225-.44727-1-1-1ZM51,51h-14v-14h14v14Z"/>
  <path d="M57,10c0-1.65002-1.34998-3-3-3h-20c-1.65002,0-3,1.34998-3,3v20c0,.47998.12.91998.32001,1.32001-.40002-.20001-.84003-.32001-1.32001-.32001h-9c-.54999,0-1,.45001-1,1s.45001,1,1,1h9c.54999,0,1,.45001,1,1v20c0,.54999-.45001,1-1,1H10c-.54999,0-1-.45001-1-1v-20c0-.54999.45001-1,1-1h3c.54999,0,1-.45001,1-1s-.45001-1-1-1h-3c-1.65002,0-3,1.34998-3,3v20c0,1.64996,1.34998,3,3,3h20c.77002,0,1.46997-.29999,2-.78003.53003.48004,1.22998.78003,2,.78003h20c1.65002,0,3-1.35004,3-3v-20c0-.77002-.29999-1.47003-.78003-2,.48004-.53003.78003-1.23004.78003-2V10ZM55,54c0,.54999-.45001,1-1,1h-20c-.54999,0-1-.45001-1-1v-20c0-.54999.45001-1,1-1h20c.54999,0,1,.45001,1,1v20ZM55,30c0,.54999-.45001,1-1,1h-20c-.54999,0-1-.45001-1-1V10c0-.54999.45001-1,1-1h20c.54999,0,1,.45001,1,1v20Z"/>
  <path d="M36,29h16c.55273,0,1-.44775,1-1V12c0-.55225-.44727-1-1-1h-16c-.55273,0-1,.44775-1,1v16c0,.55225.44727,1,1,1ZM37,13h14v14h-14v-14Z"/>
  <path d="M42,49c.55273,0,1-.44775,1-1v-2h2v2c0,.55225.44727,1,1,1s1-.44775,1-1v-6c0-1.6543-1.3457-3-3-3s-3,1.3457-3,3v6c0,.55225.44727,1,1,1ZM44,41c.55176,0,1,.44873,1,1v2h-2v-2c0-.55127.44824-1,1-1Z"/>
  <path d="M46,15c-.55273,0-1,.44775-1,1v3.76416l-2.10547-4.21143c-.20704-.41504-.67773-.63184-1.12402-.52588-.45117.10645-.77051.50928-.77051.97314v8c0,.55225.44727,1,1,1s1-.44775,1-1v-3.76416l2.10546,4.21141c.461.92211,1.89454.58228,1.89454-.44725v-8c0-.55225-.44727-1-1-1Z"/>
  <circle cx="17" cy="32" r="1"/>
</svg>