<?xml version="1.0" encoding="UTF-8"?>
<svg id="Outline" xmlns="http://www.w3.org/2000/svg" version="1.1" viewBox="0 0 64 64">
  <!-- Generator: Adobe Illustrator 29.3.1, SVG Export Plug-In . SVG Version: 2.1.0 Build 151)  -->
  <path d="M46.96765,36.06478c-1.16992-1.16992-3.07227-1.16992-4.24219,0l-.70508.70508-.70508-.70508c-1.16992-1.16992-3.07227-1.16992-4.24219,0s-1.16992,3.07227,0,4.24219l.70508.70508-.70508.70508c-1.16992,1.16992-1.16992,3.07227,0,4.24219s3.07227,1.16992,4.24219,0l.70508-.70508.70508.70508c.58496.58496,1.35254.87695,2.12109.87695s1.53613-.29199,2.12109-.87695c1.16992-1.16992,1.16992-3.07227,0-4.24219l-.70508-.70508.70508-.70508c1.16992-1.16992,1.16992-3.07227,0-4.24219ZM44.14147,41.71908l1.41211,1.41211c.38965.38965.38965,1.02441,0,1.41406-.39062.39062-1.02344.39062-1.41406,0l-1.41211-1.41211c-.19531-.19531-.45117-.29297-.70703-.29297s-.51172.09766-.70703.29297l-1.41211,1.41211c-.39062.39062-1.02344.39062-1.41406,0-.38965-.38965-.38965-1.02441,0-1.41406l1.41211-1.41211c.39062-.39062.39062-1.02344,0-1.41406l-1.41211-1.41211c-.38965-.38965-.38965-1.02441,0-1.41406.39062-.39062,1.02344-.39062,1.41406,0l1.41211,1.41211c.39062.39062,1.02344.39062,1.41406,0l1.41211-1.41211c.39062-.39062,1.02344-.39062,1.41406,0,.38965.38965.38965,1.02441,0,1.41406l-1.41211,1.41211c-.39062.39062-.39062,1.02344,0,1.41406Z"/>
  <path d="M55.61041,50.48202l-4.41003-3.42999c1.15002-1.72998,1.82001-3.81,1.82001-6.03998,0-5.73004-4.40002-10.44-10-10.95001v-11.04999h3c.54999,0,1-.45001,1-1v-3c0-2.21002-1.78998-4-4-4h-4v-1c0-1.65002-1.34998-3-3-3H10.02038c-1.65002,0-3,1.34998-3,3v32c0,1.64996,1.34998,3,3,3h1v1c0,1.64996,1.34998,3,3,3h20.46997c1.97003,1.84998,4.62006,3,7.53003,3,1.71997,0,3.34998-.41003,4.81-1.12l3.65997,4.71997c1.31857,1.70045,3.94859,1.84142,5.46.33005,1.51293-1.5129,1.32306-4.14804-.33994-5.46005ZM11.02038,15.01205v28h-1c-.54999,0-1-.45001-1-1V10.01205c0-.54999.45001-1,1-1h26c.54999,0,1,.45001,1,1v1H15.02038c-2.21002,0-4,1.78998-4,4ZM14.02038,47.01205c-.54999,0-1-.45001-1-1V15.01205c0-1.10004.90002-2,2-2s2,.89996,2,2v3c0,.54999.45001,1,1,1h7c.54999,0,1-.45001,1-1s-.45001-1-1-1h-6v-2c0-.73004-.21002-1.41003-.56-2h24.56c1.09998,0,2,.89996,2,2v2h-12c-.54999,0-1,.45001-1,1s.45001,1,1,1h8v11.04999c-1.04999.09998-2.06.34003-3,.71002v-4.76001c0-.54999-.45001-1-1-1h-4c-.54999,0-1,.45001-1,1v5h-2v-9c0-.54999-.45001-1-1-1h-4c-.54999,0-1,.45001-1,1v9h-2v-3c0-.54999-.45001-1-1-1h-4c-.54999,0-1,.45001-1,1v3c-.54999,0-1,.45001-1,1s.45001,1,1,1h18.46997c-2.12994,2.01001-3.46997,4.84998-3.46997,8,0,2.20996.65997,4.26996,1.78998,6H14.02038ZM36.02038,27.01205v4h-2v-4h2ZM28.02038,23.01205v8h-2v-8h2ZM20.02038,29.01205v2h-2v-2h2ZM42.02038,50.01205c-4.96002,0-9-4.04004-9-9s4.03998-9,9-9,9,4.03998,9,9-4.03998,9-9,9ZM54.53039,54.53201c-.33002.33002-.78003.5-1.26001.48004-.46997-.03003-.90997-.26001-1.20001-.63l-3.51996-4.54004c.5-.37.96997-.77997,1.39996-1.22998l4.42999,3.44c.41003.33002.64001.79999.64001,1.31,0,.44-.16998.85004-.48999,1.16998Z"/>
  <path d="M28.02038,43.01205h-12c-.55273,0-1,.44727-1,1s.44727,1,1,1h12c.55273,0,1-.44727,1-1s-.44727-1-1-1Z"/>
  <path d="M16.02038,41.01205h8c.55273,0,1-.44727,1-1s-.44727-1-1-1h-8c-.55273,0-1,.44727-1,1s.44727,1,1,1Z"/>
  <path d="M16.02038,37.01205h8c.55273,0,1-.44727,1-1s-.44727-1-1-1h-8c-.55273,0-1,.44727-1,1s.44727,1,1,1Z"/>
  <circle cx="29.02038" cy="18.01205" r="1"/>
</svg>