<?xml version="1.0" encoding="UTF-8"?>
<svg id="Outline" xmlns="http://www.w3.org/2000/svg" version="1.1" viewBox="0 0 64 64">
  <!-- Generator: Adobe Illustrator 29.3.1, SVG Export Plug-In . SVG Version: 2.1.0 Build 151)  -->
  <path d="M56,31v-12c0-1.10004-.90002-2-2-2h-2v-4c0-1.10004-.90002-2-2-2h-2c-1.09998,0-2,.89996-2,2v18h-2v-6c0-1.10004-.90002-2-2-2h-2v-6c0-1.10004-.90002-2-2-2h-2c-1.09998,0-2,.89996-2,2v3c0,.54999.45001,1,1,1s1-.45001,1-1v-3h2v14h-2v-7c0-.54999-.45001-1-1-1s-1,.45001-1,1v7H12V10.40997l1.28998,1.29999c.20001.19.45001.29004.71002.29004s.51001-.10004.71002-.29004c.38995-.38995.38995-1.02997,0-1.41998l-3-3c-.39001-.39001-1.03003-.39001-1.42004,0l-3,3c-.38995.39001-.38995,1.03003,0,1.41998.39001.39001,1.03003.39001,1.42004,0l1.28998-1.29999v43.17999l-1.28998-1.29999c-.39001-.39001-1.03003-.39001-1.42004,0-.38995.39001-.38995,1.03003,0,1.41998l3,3c.20001.19.45001.29004.71002.29004s.51001-.10004.71002-.29004l3-3c.38995-.38995.38995-1.02997,0-1.41998-.39001-.39001-1.03003-.39001-1.42004,0l-1.28998,1.29999v-20.58997h2v12c0,1.09998.90002,2,2,2h2v4c0,1.09998.90002,2,2,2h2c1.09998,0,2-.90002,2-2v-8c0-.54999-.45001-1-1-1s-1,.45001-1,1v8h-2v-18h2v6c0,.54999.45001,1,1,1s1-.45001,1-1v-6h2v6c0,1.09998.90002,2,2,2h2v6c0,1.09998.90002,2,2,2h2c1.09998,0,2-.90002,2-2v-14h20c.54999,0,1-.45001,1-1s-.45001-1-1-1ZM18,45h-2v-12h2v12ZM30,39h-2v-6h2v6ZM34,47h-2v-14h2v14ZM42,31h-2v-6h2v6ZM50,31h-2V13h2v18ZM54,31h-2v-12h2v12Z"/>
  <path d="M14,15v4c0,.55225.44775,1,1,1h8c.55225,0,1-.44775,1-1v-4c0-.55225-.44775-1-1-1h-8c-.55225,0-1,.44775-1,1ZM16,16h6v2h-6v-2Z"/>
  <path d="M23,22h-8c-.55225,0-1,.44775-1,1s.44775,1,1,1h8c.55225,0,1-.44775,1-1s-.44775-1-1-1Z"/>
  <path d="M23,26h-8c-.55225,0-1,.44775-1,1s.44775,1,1,1h8c.55225,0,1-.44775,1-1s-.44775-1-1-1Z"/>
  <path d="M49,44h-8c-.55225,0-1,.44775-1,1v4c0,.55225.44775,1,1,1h8c.55225,0,1-.44775,1-1v-4c0-.55225-.44775-1-1-1ZM48,48h-6v-2h6v2Z"/>
  <path d="M49,40h-8c-.55225,0-1,.44775-1,1s.44775,1,1,1h8c.55225,0,1-.44775,1-1s-.44775-1-1-1Z"/>
  <path d="M49,36h-8c-.55225,0-1,.44775-1,1s.44775,1,1,1h8c.55225,0,1-.44775,1-1s-.44775-1-1-1Z"/>
</svg>