<?xml version="1.0" encoding="UTF-8"?>
<svg id="Outline" xmlns="http://www.w3.org/2000/svg" version="1.1" viewBox="0 0 64 64">
  <!-- Generator: Adobe Illustrator 29.3.1, SVG Export Plug-In . SVG Version: 2.1.0 Build 151)  -->
  <path d="M50,7h-25c-.54999,0-1,.45001-1,1s.45001,1,1,1h25c.54999,0,1,.45001,1,1v17h-2v-3c0-.54999-.45001-1-1-1h-8c-.54999,0-1,.45001-1,1v3H13V10c0-.54999.45001-1,1-1h3c.54999,0,1-.45001,1-1s-.45001-1-1-1h-3c-1.65002,0-3,1.34998-3,3v20c0,1.64996,1.34998,3,3,3h36c1.65002,0,3-1.35004,3-3V10c0-1.65002-1.34998-3-3-3ZM41,25h6v2h-6v-2ZM51,30c0,.54999-.45001,1-1,1H14c-.54999,0-1-.45001-1-1v-1h38v1Z"/>
  <path d="M56,37h-9.56l-.20001-1.17004c-.08997-.47998-.5-.82996-.98999-.82996h-10.5c-.48999,0-.90002.34998-.98999.82996l-.20001,1.17004h-3.12l-.20001-1.17004c-.08997-.47998-.5-.82996-.98999-.82996h-10.5c-.48999,0-.90002.34998-.98999.82996l-.20001,1.17004h-9.56c-.54999,0-1,.45001-1,1v4c0,.54999.45001,1,1,1h1v13c0,.54999.45001,1,1,1h3c.52002,0,.96002-.41003,1-.92999l.92999-13.07001h1.58002l-.5,2.82996c-.04999.29004.02997.59003.21997.81006.19.22998.48004.35999.77002.35999h1v9c0,.54999.45001,1,1,1h3c.51001,0,.94-.39001,1-.90002l.90997-9.09998h.18005l.90997,9.09998c.06.51001.48999.90002,1,.90002h3c.54999,0,1-.45001,1-1v-9h1c.28998,0,.58002-.13.77002-.35999.14996-.18005.22998-.41003.22998-.64001,0-.06,0-.10999-.01001-.17004l-.5-2.82996h1.02002l-.5,2.82996c-.01001.06006-.01001.11005-.01001.17004,0,.22998.08002.45996.22998.64001.19.22998.48004.35999.77002.35999h1v9c0,.54999.45001,1,1,1h3c.51001,0,.94-.39001,1-.90002l.90997-9.09998h.18005l.90997,9.09998c.06.51001.48999.90002,1,.90002h3c.54999,0,1-.45001,1-1v-9h1c.28998,0,.58002-.13.77002-.35999.19-.22003.26996-.52002.21997-.81006l-.5-2.82996h1.58002l.92999,13.07001c.03998.51996.47998.92999,1,.92999h3c.54999,0,1-.45001,1-1v-13h1c.54999,0,1-.45001,1-1v-4c0-.54999-.45001-1-1-1ZM12.07001,55h-1.07001v-12h1.92999l-.85999,12ZM16.85999,41h-7.85999v-2h8.21002l-.35004,2ZM21.09003,55h-1.09003v-8h1.89001l-.79999,8ZM28,55h-1.09003l-.79999-8h1.89001v8ZM18.19,45l1.40002-8h8.81995l1.40002,8h-11.62ZM32.85999,41h-1.71997l-.35004-2h2.42004l-.35004,2ZM37.09003,55h-1.09003v-8h1.89001l-.79999,8ZM44,55h-1.09003l-.79999-8h1.89001v8ZM34.19,45l1.40002-8h8.81995l1.40002,8h-11.62ZM53,55h-1.07001l-.85999-12h1.92999v12ZM55,41h-7.85999l-.35004-2h8.21002v2Z"/>
  <circle cx="21" cy="8" r="1"/>
</svg>