<?xml version="1.0" encoding="UTF-8"?>
<svg id="Outline" xmlns="http://www.w3.org/2000/svg" version="1.1" viewBox="0 0 64 64">
  <!-- Generator: Adobe Illustrator 29.5.1, SVG Export Plug-In . SVG Version: 2.1.0 Build 141)  -->
  <path d="M56,34.995c.55,0,1-.45,1-1v-3c0-.55-.45-1-1-1h-4c-.55,0-1,.45-1,1v8.54c-.74-.66-1.64-1.15-2.64-1.38.4-.62.64-1.36.64-2.16,0-2.21-1.79-4-4-4s-4,1.79-4,4c0,1.5.84,2.8,2.07,3.48-1.27,1.1-2.07,2.72-2.07,4.52h-3c-1.65,0-3,1.35-3,3,0,.35.07.69.18,1h-6.36c.11-.31.18-.65.18-1,0-1.65-1.35-3-3-3h-3c0-1.8-.8-3.42-2.07-4.52,1.23-.68,2.07-1.98,2.07-3.48,0-2.21-1.79-4-4-4s-4,1.79-4,4c0,.8.24,1.54.64,2.16-1,.23-1.9.72-2.64,1.38v-8.54c0-.55-.45-1-1-1h-4c-.55,0-1,.45-1,1v24c0,.55.45,1,1,1h48c.55,0,1-.45,1-1v-17c0-.55-.45-1-1-1s-1,.45-1,1v16h-2v-22h2v2c0,.55.45,1,1,1ZM11,53.995h-2v-22h2v22ZM43,35.995c0-1.1.9-2,2-2s2,.9,2,2-.9,2-2,2-2-.9-2-2ZM19,33.995c1.1,0,2,.9,2,2s-.9,2-2,2-2-.9-2-2,.9-2,2-2ZM21,53.995h-8v-10c0-2.21,1.79-4,4-4s4,1.79,4,4v1c0,.55.45,1,1,1h4c.55,0,1,.45,1,1s-.45,1-1,1h-7c-1.1,0-2-.9-2-2,0-.55-.45-1-1-1s-1,.45-1,1c0,2.21,1.79,4,4,4h2v4ZM41,53.995h-18v-4h18v4ZM51,53.995h-8v-4h2c2.21,0,4-1.79,4-4,0-.55-.45-1-1-1s-1,.45-1,1c0,1.1-.9,2-2,2h-7c-.55,0-1-.45-1-1s.45-1,1-1h4c.55,0,1-.45,1-1v-1c0-2.21,1.79-4,4-4s4,1.79,4,4v10Z"/>
  <path d="M19.686,25.918c-.413.882-.91,1.711-1.484,2.476-.229.303-.266.708-.096,1.048.169.339.516.553.895.553h2c2.395,0,4.732-.798,6.636-2.24,1.4.153,2.86.24,4.364.24s2.964-.087,4.364-.24c1.904,1.442,4.241,2.24,6.636,2.24h2c.379,0,.726-.214.895-.553.17-.339.133-.745-.096-1.048-.574-.764-1.071-1.594-1.484-2.476,4.9-1.875,7.686-4.729,7.686-7.923,0-4.994-7.118-9.152-16.925-9.887-.553-.049-1.031.371-1.072.922-.041.551.371,1.031.922,1.072,8.453.634,15.075,4.101,15.075,7.893,0,2.458-2.743,4.848-7.338,6.392-.259.087-.471.275-.587.522-.115.247-.126.53-.028.785.308.801.675,1.57,1.097,2.301h-.144c-2.058,0-4.066-.712-5.663-2.006-.016-.015-.032-.028-.049-.042-.003-.002-.006-.006-.009-.008,0,0,0,0,0,0-.534-.432-1.032-.951-1.479-1.545-.334-.441-.961-.531-1.401-.196-.44.333-.528.959-.196,1.4.085.113.181.209.269.317-1.628.1-3.313.1-4.941,0,.088-.108.184-.205.269-.317.332-.441.244-1.068-.196-1.4-.441-.333-1.067-.245-1.401.196-.447.593-.944,1.111-1.478,1.543-.003.002-.004.004-.007.006-.002.001-.003.003-.005.004-.014.011-.028.024-.044.038-1.597,1.296-3.608,2.01-5.668,2.01h-.144c.422-.731.789-1.5,1.097-2.301.098-.254.087-.538-.028-.785-.116-.247-.328-.435-.587-.522-4.595-1.544-7.338-3.934-7.338-6.392,0-4.172,7.638-7.756,17.025-7.991.552-.014.988-.472.975-1.024-.014-.543-.459-.975-1-.975-.008,0-.017,0-.025,0-10.817.27-18.975,4.564-18.975,9.99,0,3.194,2.785,6.048,7.686,7.923Z"/>
  <path d="M47,17.995c0-.552-.447-1-1-1h-28c-.553,0-1,.448-1,1s.447,1,1,1h28c.553,0,1-.448,1-1Z"/>
  <path d="M40,12.995h-16c-.553,0-1,.448-1,1s.447,1,1,1h16c.553,0,1-.448,1-1s-.447-1-1-1Z"/>
  <path d="M24,20.995c-.553,0-1,.448-1,1s.447,1,1,1h16c.553,0,1-.448,1-1s-.447-1-1-1h-16Z"/>
</svg>