<?xml version="1.0" encoding="UTF-8"?>
<svg id="Outline" xmlns="http://www.w3.org/2000/svg" version="1.1" viewBox="0 0 64 64">
  <!-- Generator: Adobe Illustrator 29.3.1, SVG Export Plug-In . SVG Version: 2.1.0 Build 151)  -->
  <path d="M56.00098,48.0249c-.53516-.12354-1.07422.21484-1.19629.75391-.81787,3.60498-4.1001,6.22119-7.80469,6.22119-4.41113,0-8-3.58887-8-8s3.58887-8,8-8c3.70459,0,6.98682,2.61621,7.80469,6.22119.12207.53906.66113.87891,1.19629.75391.53857-.12207.87598-.65771.75391-1.19629-.54608-2.40723-1.97571-4.4552-3.88995-5.84735.74017-2.22491,1.13507-4.54877,1.13507-6.93146,0-5.10889-1.78613-10.0835-5.02881-14.00732-.35254-.42627-.98291-.48486-1.4082-.13379-.42578.35205-.48535.98242-.13379,1.4082,2.94775,3.56592,4.5708,8.08789,4.5708,12.73291,0,2.02209-.31396,3.99603-.89972,5.89313-1.26392-.57465-2.65637-.89313-4.10028-.89313v-3.5c0-1.92969-1.57031-3.5-3.5-3.5h-2c-.82715,0-1.5-.67285-1.5-1.5,0-1.92969-1.57031-3.5-3.5-3.5h-4c-.82715,0-1.5-.67285-1.5-1.5s.67285-1.5,1.5-1.5h3.5c1.6543,0,3-1.3457,3-3s-1.3457-3-3-3h-2c-.55127,0-1-.44873-1-1v-2.95648c4.28979.21564,8.42395,1.79199,11.73291,4.52728.18652.15381.41211.229.63672.229.2876,0,.57373-.12354.77148-.36279.35156-.42578.29199-1.05615-.13379-1.4082-3.92383-3.24268-8.89844-5.02881-14.00732-5.02881-2.37885,0-4.69897.3938-6.92053,1.13153-1.8197-2.49829-4.75897-4.13153-8.07947-4.13153-5.51416,0-10,4.48584-10,10,0,3.3205,1.63324,6.25977,4.13153,8.07947-.73773,2.22156-1.13153,4.54169-1.13153,6.92053,0,12.13086,9.86914,22,22,22,2.37885,0,4.69897-.3938,6.92053-1.13153,1.8197,2.49829,4.75897,4.13153,8.07947,4.13153,4.62988,0,8.73242-3.27148,9.75488-7.77881.12207-.53857-.21533-1.07422-.75391-1.19629ZM31,12.04382v2.95618c0,1.6543,1.3457,3,3,3h2c.55127,0,1,.44873,1,1s-.44873,1-1,1h-3.5c-1.92969,0-3.5,1.57031-3.5,3.5s1.57031,3.5,3.5,3.5h4c.82715,0,1.5.67285,1.5,1.5,0,1.92969,1.57031,3.5,3.5,3.5h2c.82715,0,1.5.67285,1.5,1.5v3.70154c-4.2403.86414-7.51251,4.41968-7.94934,8.79846h-2.55066c-.82715,0-1.5-.67285-1.5-1.5v-3c0-1.92969-1.57031-3.5-3.5-3.5h-6c-.82715,0-1.5-.67285-1.5-1.5s.67285-1.5,1.5-1.5h2.5c1.6543,0,3-1.3457,3-3s-1.3457-3-3-3h-6c-.55127,0-1-.44873-1-1v-1.20154c4.55896-.92908,8-4.96912,8-9.79846,0-1.4624-.32312-2.84821-.88965-4.10144,1.58112-.48785,3.21722-.77295,4.88965-.85474ZM9,17c0-4.41113,3.58887-8,8-8s8,3.58887,8,8-3.58887,8-8,8-8-3.58887-8-8ZM32,52c-11.02783,0-20-8.97217-20-20,0-2.02087.31354-3.99365.89856-5.88965,1.25323.56653,2.63904.88965,4.10144.88965v1c0,1.6543,1.3457,3,3,3h6c.55127,0,1,.44873,1,1s-.44873,1-1,1h-2.5c-1.92969,0-3.5,1.57031-3.5,3.5s1.57031,3.5,3.5,3.5h6c.82715,0,1.5.67285,1.5,1.5v3c0,1.92969,1.57031,3.5,3.5,3.5h2.55066c.10938,1.09656.40326,2.13745.83899,3.10144-1.896.58502-3.86877.89856-5.88965.89856Z"/>
  <path d="M13,15h.16309c.33917,1.86621,1.18433,3.57941,2.39355,4.98773-.58771.43933-1.23431.80603-1.92822,1.08356-.5127.20508-.76221.78711-.55713,1.30029.15674.39062.53223.62891.9292.62891.12354,0,.24902-.02344.37109-.07178.95959-.38391,1.83588-.91742,2.62842-1.54919.79254.63177,1.66882,1.16528,2.62842,1.54919.12207.04834.24756.07178.37109.07178.39697,0,.77246-.23828.9292-.62891.20508-.51318-.04443-1.09521-.55713-1.30029-.69391-.27753-1.34052-.64423-1.92822-1.08356,1.20923-1.40833,2.05438-3.12152,2.39355-4.98773h.16309c.55225,0,1-.44775,1-1s-.44775-1-1-1h-3v-1c0-.55225-.44775-1-1-1s-1,.44775-1,1v1h-3c-.55225,0-1,.44775-1,1s.44775,1,1,1ZM17,18.61035c-.86713-1.03467-1.48218-2.27057-1.78687-3.61035h3.57373c-.30469,1.33978-.91974,2.57568-1.78687,3.61035Z"/>
  <path d="M49.5,53c.55225,0,1-.44775,1-1v-7.5c0-1.92969-1.57031-3.5-3.5-3.5s-3.5,1.57031-3.5,3.5v7.5c0,.55225.44775,1,1,1s1-.44775,1-1v-3h3v3c0,.55225.44775,1,1,1ZM45.5,47v-2.5c0-.82715.67285-1.5,1.5-1.5s1.5.67285,1.5,1.5v2.5h-3Z"/>
</svg>