<?xml version="1.0" encoding="UTF-8"?>
<svg id="Outline" xmlns="http://www.w3.org/2000/svg" version="1.1" viewBox="0 0 64 64">
  <!-- Generator: Adobe Illustrator 29.0.0, SVG Export Plug-In . SVG Version: 2.1.0 Build 186)  -->
  <path d="M27.54869,29.20353c-.55225,0-1,.44775-1,1v4.24268c0,.55225.44775,1,1,1h4.24268c.55225,0,1-.44775,1-1s-.44775-1-1-1h-1.82861l13.55664-13.55664v1.82861c0,.55225.44775,1,1,1s1-.44775,1-1v-4.24268c0-.55225-.44775-1-1-1h-4.24268c-.55225,0-1,.44775-1,1s.44775,1,1,1h1.82861l-13.55664,13.55664v-1.82861c0-.55225-.44775-1-1-1Z"/>
  <path d="M56.53404,37.86271c-.6875-.39697-1.09814-1.10791-1.09814-1.90186s.41064-1.50488,1.09814-1.90186c.47852-.27637.64209-.88818.36621-1.36621l-2-3.46387c-.27686-.47852-.88818-.64307-1.36621-.36621-.25293.14606-.52557.21979-.80139.25836.19818-1.02869.30139-2.08667.30139-3.16022,0-9.37402-7.62598-17-17-17-3.81152,0-7.41602,1.23828-10.42432,3.58105-.43604.33936-.51416.96777-.1748,1.40332s.96729.51318,1.40332.1748c2.6543-2.06689,5.83398-3.15918,9.1958-3.15918,8.271,0,15,6.729,15,15,0,.84039-.0769,1.66718-.21448,2.47528-.36523-.39716-.57996-.91235-.57996-1.47528,0-.55225-.44775-1-1-1h-4c-.55225,0-1,.44775-1,1,0,.79395-.41064,1.50488-1.09814,1.90186-.68848.39697-1.50928.39697-2.1958,0-.47998-.27686-1.08984-.1123-1.36621.36621l-2,3.46387c-.27588.47803-.1123,1.08984.36621,1.36621.6875.39697,1.09814,1.10791,1.09814,1.90186s-.41064,1.50488-1.09814,1.90186c-.47852.27637-.64209.88818-.36621,1.36621l.88202,1.52765c-.78851.13098-1.59882.20428-2.42743.20428-8.271,0-15-6.729-15-15,0-3.36182,1.09229-6.5415,3.15918-9.1958.33936-.43555.26123-1.06396-.1748-1.40332-.43506-.33838-1.06299-.26123-1.40332.1748-2.34277,3.0083-3.58105,6.61279-3.58105,10.42432,0,2.112.40485,4.12683,1.11182,5.99414l-2.54883,2.54883c-.30859.30859-.38135.78174-.17969,1.16895.35999.69135.76703,1.34882,1.19568,1.98926l-10.09606,9.0537c-1.9932,1.78741-2.07535,5.06769-.18999,6.95211,1.9017,1.90076,5.16236,1.81386,6.95024-.18795l1.97998-2.2002c.36963-.41064.33643-1.04297-.07422-1.41211-.41016-.37012-1.04248-.33545-1.41211.07422l-1.98291,2.20312c-1.02634,1.15085-2.95204,1.20361-4.04679.10898-1.10258-1.10247-1.04735-3.01226.11026-4.04843l9.95599-8.9281c.87195,1.06494,1.84485,2.0379,2.90979,2.90985l-4.2774,4.76581c-.36909.41107-.33497,1.04328.076,1.41195.38102.34181,1.05138.32687,1.41228-.07601l4.40442-4.90735c.64056.42871,1.29816.83588,1.98962,1.19592.146.07617.30469.11328.46143.11328.25928,0,.51562-.10059.70752-.29297l2.54883-2.54883c1.86731.70697,3.88214,1.11182,5.99414,1.11182,1.19574,0,2.3631-.12921,3.48627-.37048l.05914.10242c.27637.47803.88623.64209,1.36621.36621.68652-.39795,1.50732-.39795,2.1958,0,.6875.39697,1.09814,1.10791,1.09814,1.90186,0,.55225.44775,1,1,1h4c.55225,0,1-.44775,1-1,0-.79395.41064-1.50488,1.09814-1.90186.6875-.39746,1.50879-.39746,2.19629,0,.47803.27588,1.08936.11182,1.36621-.36621l2-3.46387c.27588-.47803.1123-1.08984-.36621-1.36621ZM26.60582,42.455c-2.95752-1.68555-5.38037-4.1084-7.06592-7.06592l1.47821-1.47821c1.59601,3.00244,4.06348,5.46991,7.06592,7.06592l-1.47821,1.47821ZM54.72691,38.99308l-1.11768,1.93555c-1.08691-.32227-2.25586-.18848-3.27148.39844-1.0166.58691-1.71631,1.5332-1.98047,2.63379h-2.23535c-.26416-1.10107-.96387-2.04688-1.97998-2.63379-1.01758-.58789-2.1875-.72119-3.27148-.39844l-1.11768-1.93555c.82129-.7793,1.29102-1.8584,1.29102-3.03223s-.46973-2.25293-1.29102-3.03223l1.11768-1.93555c1.08496.32178,2.25488.18896,3.27148-.39844,1.01611-.58691,1.71582-1.53271,1.97998-2.63379h2.23535c.26416,1.10059.96387,2.04688,1.98047,2.63379,1.0166.58789,2.18506.7207,3.27148.39844l1.11768,1.93555c-.82129.7793-1.29102,1.8584-1.29102,3.03223s.46973,2.25293,1.29102,3.03223Z"/>
  <path d="M47.23961,32.16642c-2.0918,0-3.79395,1.70215-3.79395,3.79443s1.70215,3.79443,3.79395,3.79443c2.09229,0,3.79443-1.70215,3.79443-3.79443s-1.70215-3.79443-3.79443-3.79443ZM47.23961,37.75529c-.98926,0-1.79395-.80518-1.79395-1.79443s.80469-1.79443,1.79395-1.79443,1.79443.80518,1.79443,1.79443-.80518,1.79443-1.79443,1.79443Z"/>
</svg>