<?xml version="1.0" encoding="UTF-8"?>
<svg id="Outline" xmlns="http://www.w3.org/2000/svg" version="1.1" viewBox="0 0 64 64">
  <!-- Generator: Adobe Illustrator 29.3.1, SVG Export Plug-In . SVG Version: 2.1.0 Build 151)  -->
  <path d="M57,15v-6c0-1.10004-.90002-2-2-2H21c-1.09998,0-2,.89996-2,2v6c0,1.09998.90002,2,2,2v7c0,.54999.45001,1,1,1s1-.45001,1-1v-7h8v7c0,.32001.15002.62.41998.81.26001.19.59003.23999.90002.14001l5.67999-1.90002,5.67999,1.90002c.10999.02997.21002.04999.32001.04999.21002,0,.40997-.06.58002-.19.26996-.19.41998-.48999.41998-.81v-7h8v21.64001c-.29999.04999-.59998.12994-.89001.25995l-11.51996,5.38c-.06-.33997-.14001-.69-.29004-1.01001-.45001-.97998-1.28998-1.72998-2.31-2.06l-14.85999-4.88995c-.03998-.02002-.09003-.03003-.13-.04004v-4.27997c0-.54999-.45001-1-1-1s-1,.45001-1,1v4.09998c-.84998.10004-1.67999.41003-2.37.91998l-.70001.47003c-1.27002.85999-2.71997,1.33997-4.23999,1.46002-.34998-.57001-.97003-.95001-1.69-.95001h-3c-1.09998,0-2,.89996-2,2v15c0,1.09998.90002,2,2,2h3c1.09998,0,2-.90002,2-2h2.20001c.97998,0,1.92999.28998,2.75.82996,1.14001.77002,2.47998,1.17004,3.84998,1.17004h13.47003c1.01001,0,1.98999-.29999,2.82996-.88l16.45001-11.31c.91003-.64001,1.45001-1.69,1.45001-2.79999,0-.52002-.12-1.03003-.37-1.54004-.34998-.70996-.95001-1.23999-1.63-1.54999v-21.91998c1.09998,0,2-.90002,2-2ZM12,53.98999v1.01001h-3v-15h3v13.98999ZM27,15h-6v-6h6v6ZM43,22.60999l-4.67999-1.56c-.10999-.03003-.21002-.04999-.32001-.04999s-.21002.01996-.32001.04999l-4.67999,1.56v-5.60999h10v5.60999ZM47,15h-18v-6h18v6ZM54.40002,43.17999l-16.43005,11.28998c-.50995.35004-1.08997.53003-1.69995.53003h-13.47003c-.97998,0-1.92999-.29004-2.75-.83002-1.14001-.77002-2.47998-1.16998-3.84998-1.16998h-2.20001v-12.04999c1.79999-.17004,3.53003-.78003,5.04999-1.80005l.73004-.48999c.77997-.58002,1.79999-.75,2.72998-.44l14.85999,4.89001c.5.15997.89001.52002,1.10999.98999.21002.47003.23004.97998.04004,1.45001,0,.02002-.01001.03998-.01001.06-.39001.91998-1.41998,1.37-2.35999,1.03998l-7.60004-2.72998c-.51996-.19-1.09998.08002-1.27997.59998-.19.52002.07996,1.09003.59998,1.28003l7.59998,2.72998c.44.15002.88.23004,1.31006.23004,1.41998,0,2.75-.79004,3.41998-2.09003l12.76001-5.96002c.69-.31995,1.53998-.02997,1.88.65002.10999.21002.15997.42999.15997.65002,0,.45996-.22998.89996-.59998,1.16998ZM49,15v-6h6v6h-6Z"/>
  <path d="M50,38c.55225,0,1-.44775,1-1v-4c0-.55225-.44775-1-1-1h-10c-.55225,0-1,.44775-1,1v4c0,.55225.44775,1,1,1h10ZM41,34h8v2h-8v-2Z"/>
  <circle cx="22" cy="28" r="1"/>
</svg>