<?xml version="1.0" encoding="UTF-8"?>
<svg id="Outline" xmlns="http://www.w3.org/2000/svg" version="1.1" viewBox="0 0 64 64">
  <!-- Generator: Adobe Illustrator 29.3.1, SVG Export Plug-In . SVG Version: 2.1.0 Build 151)  -->
  <path d="M56,26c.54999,0,1-.45001,1-1v-2c0-2.76001-2.23999-5-5-5h-2.20001c-1.42999,0-2.78998.60999-3.73999,1.67999l-6.51001,7.32001h-.54999v-2c0-3.85999-3.14001-7-7-7s-7,3.14001-7,7v2h-.54999l-6.51001-7.32001c-.95001-1.07001-2.31-1.67999-3.73999-1.67999h-2.20001c-2.76001,0-5,2.23999-5,5v7.78998c0,.98999.28998,1.95001.84003,2.77002l.65997.98999c.33002.48999.5,1.07001.5,1.65997v14.79004c-1.09998,0-2,.89996-2,2v2c0,1.09998.90002,2,2,2h9c.54999,0,1-.45001,1-1s-.45001-1-1-1h-9v-2h46v2H21c-.54999,0-1,.45001-1,1s.45001,1,1,1h34c1.09998,0,2-.90002,2-2v-2c0-1.10004-.90002-2-2-2v-14.79004c0-.58997.16998-1.16998.5-1.65997l.65997-.98999c.55005-.82001.84003-1.78003.84003-2.77002v-1.78998c0-.54999-.45001-1-1-1s-1,.45001-1,1v1.78998c0,.59003-.16998,1.16998-.5,1.66003l-.65997.98999c-.55005.82001-.84003,1.77997-.84003,2.76996v14.79004h-2v-10c0-.54999-.45001-1-1-1s-1,.45001-1,1v10h-2v-23c0-.40002-.23999-.77002-.62-.92004-.37-.15997-.79999-.06995-1.09003.21002l-3.69995,3.71002h-7.59003c-.54999,0-1-.45001-1-1s.45001-1,1-1h6c.28998,0,.56-.12.75-.34003l6.79999-7.64996c.57001-.64001,1.39001-1.01001,2.25-1.01001h2.20001c1.65002,0,3,1.34998,3,3v2c0,.54999.45001,1,1,1ZM17.62,27.07996c-.38.15002-.62.52002-.62.92004v23h-2v-10c0-.54999-.45001-1-1-1s-1,.45001-1,1v10h-2v-14.79004c0-.98999-.28998-1.94995-.84003-2.76996l-.65997-.98999c-.33002-.49005-.5-1.07001-.5-1.66003v-7.78998c0-1.65002,1.34998-3,3-3h2.20001c.85999,0,1.67999.37,2.25,1.01001l6.79999,7.64996c.19.22003.46002.34003.75.34003h6c.54999,0,1,.45001,1,1s-.45001,1-1,1h-7.59003l-3.69995-3.71002c-.29004-.27997-.72003-.37-1.09003-.21002ZM27,51h-8v-20.59003l2.28998,2.29999c.19.18005.44.29004.71002.29004h3v2c0,1.29999.84003,2.41998,2,2.82996v13.17004ZM39,35v-2h3c.27002,0,.52002-.10999.71002-.29004l2.28998-2.29999v20.59003h-8v-13.17004c1.15997-.40997,2-1.52997,2-2.82996ZM34,33h3v2c0,.54999-.45001,1-1,1s-1,.45001-1,1v14h-2v-9c0-.54999-.45001-1-1-1s-1,.45001-1,1v9h-2v-14c0-.54999-.45001-1-1-1s-1-.45001-1-1v-2h3c.77002,0,1.46997-.29999,2-.78003.53003.48004,1.22998.78003,2,.78003ZM37,27h-3c-.77002,0-1.46997.29999-2,.77997-.53003-.47998-1.22998-.77997-2-.77997h-3v-2c0-2.76001,2.23999-5,5-5s5,2.23999,5,5v2Z"/>
  <path d="M13,17c2.75684,0,5-2.24316,5-5s-2.24316-5-5-5-5,2.24316-5,5,2.24316,5,5,5ZM13,9c1.6543,0,3,1.3457,3,3s-1.3457,3-3,3-3-1.3457-3-3,1.3457-3,3-3Z"/>
  <path d="M51,17c2.75684,0,5-2.24316,5-5s-2.24316-5-5-5-5,2.24316-5,5,2.24316,5,5,5ZM51,9c1.6543,0,3,1.3457,3,3s-1.3457,3-3,3-3-1.3457-3-3,1.3457-3,3-3Z"/>
  <path d="M32,17c2.75684,0,5-2.24316,5-5s-2.24316-5-5-5-5,2.24316-5,5,2.24316,5,5,5ZM32,9c1.6543,0,3,1.3457,3,3s-1.3457,3-3,3-3-1.3457-3-3,1.3457-3,3-3Z"/>
</svg>