<?xml version="1.0" encoding="UTF-8"?>
<svg id="Outline" xmlns="http://www.w3.org/2000/svg" version="1.1" viewBox="0 0 64 64">
  <!-- Generator: Adobe Illustrator 29.0.0, SVG Export Plug-In . SVG Version: 2.1.0 Build 186)  -->
  <path d="M35.76001,38.95001c.08002.01996.14996.04999.23999.04999h4c7.16998,0,13-5.83002,13-13v-4c0-.54999-.45001-1-1-1h-4c-2,0-3.92999.44-5.72998,1.32001-.48999.23999-.70001.83997-.46002,1.33997.23999.48999.84003.70001,1.34003.46002,1.51996-.73999,3.14996-1.12,4.84998-1.12h3v3c0,6.07001-4.92999,11-11,11h-2.19l7.87-7.27002c.40002-.37.42999-1,.04999-1.40997-.37-.40002-1-.42999-1.40997-.05005l-7.32001,6.75v-1.01996c0-2.91003,1.12-5.64001,3.14001-7.70001.39001-.39001.39001-1.02002-.01001-1.40997-.39001-.39001-1.02002-.39001-1.41003.00995-2.39996,2.42999-3.71997,5.66003-3.71997,9.10004v2.87c-.78003.71997-1.44,1.52997-2,2.39996v-10.95996c0-3.35004.90997-6.54004,2.58002-9.31h1.41998c4.96002,0,9-4.04004,9-9v-2c0-.54999-.45001-1-1-1h-2c-4.96002,0-9,4.03998-9,9v1.75c-1.94,3.12-3,6.76001-3,10.56v2.14996c-.56-1.27997-1.22998-2.5-2-3.65997v-3.79999c0-2.45001-.67999-4.84003-1.96002-6.89001-.28998-.46997-.90997-.60999-1.38-.32001-.46997.28998-.60999.91003-.31995,1.38,1.08997,1.73999,1.65997,3.75,1.65997,5.83002v1.19c-.53003-.59003-1.08002-1.17004-1.66998-1.71002l-5.65002-5.21002c-.40997-.37994-1.03998-.34998-1.40997.05005-.38.40997-.35004,1.03998.04999,1.40997l5.64996,5.22003c.70001.63995,1.34003,1.32996,1.94,2.04999h-1.90997c-6.07001,0-11-4.92999-11-11v-3h3c2.53998,0,4.91998.83997,6.89001,2.42999.44.34998,1.06.27997,1.40997-.15002.34003-.42999.28003-1.06-.14996-1.40997-2.33002-1.88-5.15002-2.87-8.15002-2.87h-4c-.54999,0-1,.45001-1,1v4c0,7.16998,5.83002,13,13,13h3.40002c2.31995,3.53998,3.59998,7.70996,3.59998,12v7.54999c-.16998.09998-.34003.21002-.5.33002-.70001-.56-1.58002-.88-2.5-.88-1.85999,0-3.42999,1.27997-3.87,3-.72003-.02002-1.41998.14996-2.03003.48999-.75-.91998-1.88995-1.48999-3.09998-1.48999-1.90002,0-3.48999,1.32996-3.90002,3.09998-1.76996.41003-3.09998,2-3.09998,3.90002,0,.54999.45001,1,1,1h37.82001c.40997,0,.77997-.25.92999-.64001.16998-.41998.25-.88.25-1.35999,0-2.21002-1.78998-4-4-4-.37,0-.73999.04999-1.09003.14996-.38995-1.79999-1.98999-3.14996-3.90997-3.14996-1.21002,0-2.34998.57001-3.09998,1.48999-1-.54999-2.25-.64001-3.31-.22998-.66003-1.34003-2.03003-2.26001-3.59003-2.26001v-1c0-2.60999,1-5.14001,2.76001-7.04999ZM43,9h1v1c0,3.85999-3.14001,7-7,7h-.02002c.87-1.07001,1.86005-2.06,2.98004-2.92999l1.64996-1.28003c.44-.33997.52002-.96997.17999-1.39996-.33997-.44-.96997-.52002-1.39996-.18005l-1.65002,1.28003c-.96997.76001-1.85999,1.58997-2.65997,2.47998.51001-3.37,3.40997-5.96997,6.91998-5.96997ZM34.97998,50.87c.03003.38.27002.71997.63.85999s.77002.07001,1.04999-.20001c.79004-.71997,2.08002-.65997,2.79004.12.23999.25.58997.37.92999.30005.33997-.06.62-.30005.75-.63.29999-.80005,1.02997-1.32001,1.87-1.32001,1.09998,0,2,.89996,2,2,0,.17999-.03003.35999-.12.64001-.13.44995.06.91998.45001,1.14996.39996.23999.90997.16998,1.22998-.16998.39001-.40002.90002-.62,1.44-.62,1.09998,0,2,.89996,2,2H14.27002c.33997-.60004.98999-1,1.72998-1,.54999,0,1-.45001,1-1,0-1.10004.90002-2,2-2,.84003,0,1.57001.51996,1.87,1.32001.13.32996.41003.57001.75.63.34003.06995.69-.05005.92999-.30005.53003-.57996,1.34003-.82001,2.12-.51996.29999.10999.65002.07001.92004-.12.26996-.18005.42999-.49005.42999-.82001,0-.08002-.01001-.16003-.02002-.19,0-1.10004.90002-2,2-2,.66998,0,1.28998.33997,1.66998.89996.37.56,1.29004.56,1.66003,0,.38-.56,1-.89996,1.66998-.89996,1.03998,0,1.90997.82001,1.97998,1.87Z"/>
</svg>