<?xml version="1.0" encoding="UTF-8"?>
<svg id="Outline" xmlns="http://www.w3.org/2000/svg" version="1.1" viewBox="0 0 64 64">
  <!-- Generator: Adobe Illustrator 29.5.1, SVG Export Plug-In . SVG Version: 2.1.0 Build 141)  -->
  <path d="M25,16v-4c0-.553-.447-1-1-1h-4c0-2.206-1.794-4-4-4s-4,1.794-4,4h-4c-.553,0-1,.447-1,1v5.18c0,.33.163.639.436.825.27.186.619.225.926.107.189-.073.41-.112.639-.112,1.103,0,2,.897,2,2s-.897,2-2,2c-.229,0-.449-.039-.639-.112-.306-.118-.655-.079-.926.107-.272.187-.436.495-.436.825v5.18c0,.553.447,1,1,1h5.18c.33,0,.639-.163.825-.436.187-.271.227-.618.107-.926-.073-.189-.112-.41-.112-.639,0-1.103.897-2,2-2s2,.897,2,2c0,.229-.039.449-.112.639-.119.308-.079.654.107.926.187.272.495.436.825.436h5.18c.553,0,1-.447,1-1v-4c2.206,0,4-1.794,4-4s-1.794-4-4-4ZM25,22c-.229,0-.449-.039-.639-.112-.306-.118-.654-.079-.926.107-.272.187-.436.495-.436.825v4.18h-3c0-2.206-1.794-4-4-4s-4,1.794-4,4h-3v-3c2.206,0,4-1.794,4-4s-1.794-4-4-4v-3h4.18c.33,0,.639-.163.825-.436.187-.271.227-.618.107-.926-.073-.189-.112-.41-.112-.639,0-1.103.897-2,2-2s2,.897,2,2c0,.229-.039.449-.112.639-.119.308-.079.654.107.926.187.272.495.436.825.436h4.18v4.18c0,.33.163.639.436.825.271.186.619.225.926.107.189-.073.41-.112.639-.112,1.103,0,2,.897,2,2s-.897,2-2,2Z"/>
  <path d="M25,44v-4c0-.553-.447-1-1-1h-4c0-2.206-1.794-4-4-4s-4,1.794-4,4h-4c-.553,0-1,.447-1,1v5.18c0,.33.163.639.436.825.27.186.619.225.926.107.189-.073.41-.112.639-.112,1.103,0,2,.897,2,2s-.897,2-2,2c-.229,0-.449-.039-.639-.112-.306-.118-.655-.078-.926.107-.272.187-.436.495-.436.825v5.18c0,.553.447,1,1,1h5.18c.33,0,.639-.163.825-.436.187-.271.227-.618.107-.926-.073-.189-.112-.41-.112-.639,0-1.103.897-2,2-2s2,.897,2,2c0,.229-.039.449-.112.639-.119.308-.079.654.107.926.187.272.495.436.825.436h5.18c.553,0,1-.447,1-1v-4c2.206,0,4-1.794,4-4s-1.794-4-4-4ZM25,50c-.229,0-.449-.039-.639-.112-.306-.118-.654-.078-.926.107-.272.187-.436.495-.436.825v4.18h-3c0-2.206-1.794-4-4-4s-4,1.794-4,4h-3v-3c2.206,0,4-1.794,4-4s-1.794-4-4-4v-3h4.18c.33,0,.639-.163.825-.436.187-.271.227-.618.107-.926-.073-.189-.112-.41-.112-.639,0-1.103.897-2,2-2s2,.897,2,2c0,.229-.039.449-.112.639-.119.308-.079.654.107.926.187.272.495.436.825.436h4.18v4.18c0,.33.163.639.436.825.271.186.619.225.926.107.189-.073.41-.112.639-.112,1.103,0,2,.897,2,2s-.897,2-2,2Z"/>
  <path d="M53,30v-4c0-.553-.447-1-1-1h-4c0-2.206-1.794-4-4-4s-4,1.794-4,4h-4c-.553,0-1,.447-1,1v5.18c0,.33.163.639.436.825.271.186.619.226.926.107.189-.073.41-.112.639-.112,1.103,0,2,.897,2,2s-.897,2-2,2c-.229,0-.449-.039-.639-.112-.307-.117-.655-.078-.926.107-.272.187-.436.495-.436.825v5.18c0,.553.447,1,1,1h5.18c.33,0,.639-.163.825-.436.187-.271.227-.618.107-.926-.073-.189-.112-.41-.112-.639,0-1.103.897-2,2-2s2,.897,2,2c0,.229-.039.449-.112.639-.119.308-.079.654.107.926.187.272.495.436.825.436h5.18c.553,0,1-.447,1-1v-4c2.206,0,4-1.794,4-4s-1.794-4-4-4ZM53,36c-.229,0-.449-.039-.639-.112-.306-.117-.655-.078-.926.107-.272.187-.436.495-.436.825v4.18h-3c0-2.206-1.794-4-4-4s-4,1.794-4,4h-3v-3c2.206,0,4-1.794,4-4s-1.794-4-4-4v-3h4.18c.33,0,.639-.163.825-.436.187-.271.227-.618.107-.926-.073-.189-.112-.41-.112-.639,0-1.103.897-2,2-2s2,.897,2,2c0,.229-.039.449-.112.639-.119.308-.079.654.107.926.187.272.495.436.825.436h4.18v4.18c0,.33.163.639.436.825.271.186.619.226.926.107.189-.073.41-.112.639-.112,1.103,0,2,.897,2,2s-.897,2-2,2Z"/>
  <path d="M26.827,12.685c1.515.347,2.944.974,4.253,1.864.815.55,1.577,1.205,2.257,1.94.361.401.7.828,1.012,1.273l-.83.52c-.342.215-.521.614-.455,1.013s.366.718.76.809c0,0,5.51,1.28,5.51,1.28.258.06.531.015.756-.125.226-.141.386-.365.445-.624l1.271-5.521c.091-.395-.064-.804-.394-1.039-.33-.233-.768-.246-1.11-.034l-.851.53c-.125-.197-.252-.384-.389-.562-.336-.438-.965-.521-1.402-.182-.438.337-.519.965-.182,1.402.112.146.213.3.312.457l.49.79c.14.226.364.387.623.446.143.033.29.036.432.005l-.525,2.28-2.276-.528c.247-.321.282-.775.056-1.139l-.183-.293c-.466-.743-.999-1.449-1.592-2.107-.793-.858-1.673-1.615-2.612-2.248-.562-.383-1.145-.724-1.744-1.021.295-.016.599-.012.895.006.548.029,1.024-.39,1.056-.94.032-.552-.39-1.024-.94-1.056-1.654-.097-3.303.215-4.836.92-.389.179-.621.585-.577,1.011.045.426.354.776.772.872Z"/>
  <path d="M46.416,45.331c-2.661,1.709-5.793,2.355-8.889,1.843l.21-.961c.086-.396-.075-.804-.407-1.034-.33-.231-.771-.239-1.11-.021l-4.76,3.058c-.224.144-.381.37-.438.629-.056.26-.007.53.137.754l3.057,4.759c.187.289.506.459.842.459.059,0,.118-.005.178-.016.397-.072.713-.376.8-.771l.212-.977c4.962,1.046,9.964-1.757,11.652-6.548.142-.402.012-.852-.323-1.116-.336-.267-.803-.287-1.16-.058ZM36.613,51.086l-.916-.2c-.264-.058-.532-.01-.754.135-.122.078-.224.181-.301.3l-1.261-1.962,1.962-1.261c.059.4.358.742.776.833l.336.074c2.7.587,5.447.407,7.988-.492-1.901,2.154-4.88,3.214-7.831,2.573Z"/>
  <circle cx="35.25" cy="12" r="1"/>
</svg>