<?xml version="1.0" encoding="UTF-8"?>
<svg id="Outline" xmlns="http://www.w3.org/2000/svg" version="1.1" viewBox="0 0 64 64">
  <!-- Generator: Adobe Illustrator 29.0.0, SVG Export Plug-In . SVG Version: 2.1.0 Build 186)  -->
  <path d="M38.55078,45.73633c-.04065-.02686-.08551-.04327-.12891-.06354-.01154-.0061-.01526-.01483-.02832-.02045l-6-2.57129c-.25-.1084-.53711-.1084-.78711,0l-6,2.57129c-.01239.00531-.01593.01367-.02692.01947-.04388.02051-.08929.03729-.13031.06451-.28027.18506-.44922.49902-.44922.83496v6.85742c0,.3999.23828.76172.60645.91895l6,2.57129c.00024.00012.00049.00006.00073.00018.12067.05164.25317.08087.39282.08087s.27216-.0293.39288-.08093c.00024-.00012.00043,0,.00067-.00012l6-2.57129c.36816-.15723.60645-.51904.60645-.91895v-6.85742c0-.33594-.16895-.6499-.44922-.83496ZM32,45.08789l3.4621,1.48352-3.4621,1.48376-3.4621-1.48376,3.4621-1.48352ZM27,48.08789l4,1.71423v4.68146l-4-1.71405v-4.68164ZM37,52.76953l-4,1.71405v-4.68146l4-1.71423v4.68164Z"/>
  <path d="M56.55078,45.73633c-.04065-.02686-.08551-.04327-.12891-.06354-.01154-.0061-.01526-.01483-.02832-.02045l-6-2.57129c-.25-.1084-.53711-.1084-.78711,0l-6,2.57129c-.01263.00543-.01624.01392-.02747.01984-.0437.02045-.08887.03711-.12976.06415-.28027.18506-.44922.49902-.44922.83496v6.85742c0,.3999.23828.76172.60645.91895l6,2.57129c.00024.00012.00049.00006.00073.00018.12067.05164.25317.08087.39282.08087s.27216-.0293.39288-.08093c.00024-.00012.00043,0,.00067-.00012l6-2.57129c.36816-.15723.60645-.51904.60645-.91895v-6.85742c0-.33594-.16895-.6499-.44922-.83496ZM50,45.08789l3.4621,1.48352-3.4621,1.48376-3.4621-1.48376,3.4621-1.48352ZM45,48.08789l4,1.71423v4.68146l-4-1.71405v-4.68164ZM55,52.76953l-4,1.71405v-4.68146l4-1.71423v4.68164Z"/>
  <path d="M20.55078,45.73633c-.04065-.02692-.08569-.0434-.12921-.06372-.01141-.00604-.01508-.01471-.02802-.02026l-6-2.57129c-.25-.1084-.53711-.1084-.78711,0l-6,2.57129c-.01257.00537-.01617.01385-.02734.01971-.0437.02045-.08893.03717-.12988.06427-.28027.18506-.44922.49902-.44922.83496v6.85742c0,.3999.23828.76172.60645.91895l6,2.57129c.00024.00012.00049.00006.00073.00018.12067.05164.25317.08087.39282.08087s.27216-.0293.39288-.08093c.00024-.00012.00043,0,.00067-.00012l6-2.57129c.36816-.15723.60645-.51904.60645-.91895v-6.85742c0-.33594-.16895-.6499-.44922-.83496ZM14,45.08789l3.4621,1.48352-3.4621,1.48376-3.4621-1.48376,3.4621-1.48352ZM9,48.08789l4,1.71423v4.68146l-4-1.71405v-4.68164ZM19,52.76953l-4,1.71405v-4.68146l4-1.71423v4.68164Z"/>
  <path d="M31,37v3c0,.55225.44727,1,1,1s1-.44775,1-1v-3h15c.55176,0,1,.44873,1,1v2c0,.55225.44727,1,1,1s1-.44775,1-1v-2c0-1.6543-1.3457-3-3-3h-15v-4.04535c2.55847-.21344,4.98523-1.23785,6.9209-2.94489.41406-.36475.4541-.99561.08984-1.41016l-1.35657-1.54346c1.49982-1.64966,2.34583-3.80634,2.34583-6.05615,0-4.62408-3.50653-8.44153-8-8.94104v-2.05896c0-.55225-.44727-1-1-1-6.61719,0-12,5.3833-12,12,0,2.45459.73242,4.80615,2.11914,6.80078.31543.45361.9375.56445,1.39258.25049.45312-.31543.56543-.93848.25-1.39209-1.15234-1.65771-1.76172-3.61475-1.76172-5.65918,0-5.17627,3.9541-9.44678,9-9.9502v9.9502c0,.24316.08887.47754.24902.66016l5.27606,6.00299c.00189.0022.00226.00507.00421.00726.00177.00201.00439.00256.00623.00458l1.28088,1.45734c-1.68652,1.21045-3.71777,1.86768-5.81641,1.86768-2.04395,0-4.00098-.60889-5.66016-1.76123-.45312-.31494-1.07715-.20166-1.3916.25098-.31543.45312-.20312,1.07666.25098,1.3916,1.72223,1.19666,3.71069,1.9032,5.80078,2.07489v4.04376h-6c-.55273,0-1,.44775-1,1s.44727,1,1,1h6ZM33,12.0799c3.38623.48785,6,3.40063,6,6.9201,0,1.67322-.60779,3.27631-1.68158,4.53638l-4.31842-4.91333v-6.54315Z"/>
  <path d="M21,35h-5c-1.6543,0-3,1.3457-3,3v2c0,.55225.44727,1,1,1s1-.44775,1-1v-2c0-.55127.44824-1,1-1h5c.55273,0,1-.44775,1-1s-.44727-1-1-1Z"/>
</svg>