<?xml version="1.0" encoding="UTF-8"?>
<svg id="Outline" xmlns="http://www.w3.org/2000/svg" version="1.1" viewBox="0 0 64 64">
  <!-- Generator: Adobe Illustrator 29.0.0, SVG Export Plug-In . SVG Version: 2.1.0 Build 186)  -->
  <path d="M56,28c.54999,0,1-.45001,1-1v-13c0-1.65002-1.34998-3-3-3h-2v-1c0-1.65002-1.34998-3-3-3s-3,1.34998-3,3v1h-28v-1c0-1.65002-1.34998-3-3-3s-3,1.34998-3,3v1h-2c-1.65002,0-3,1.34998-3,3v40c0,1.64996,1.34998,3,3,3h44c1.65002,0,3-1.35004,3-3v-23c0-.54999-.45001-1-1-1s-1,.45001-1,1v23c0,.54999-.45001,1-1,1H10c-.54999,0-1-.45001-1-1V21h2v31c0,.54999.45001,1,1,1h32c.13,0,.26001-.03003.39001-.08002.12-.04999.22998-.12.32001-.21002l8-8c.17999-.19.28998-.44.28998-.70996v-23h2v6c0,.54999.45001,1,1,1ZM48,10c0-.54999.45001-1,1-1s1,.45001,1,1v4c0,.54999-.45001,1-1,1s-1-.45001-1-1v-4ZM14,10c0-.54999.45001-1,1-1s1,.45001,1,1v4c0,.54999-.45001,1-1,1s-1-.45001-1-1v-4ZM39,43v-2h6v2h-6ZM45,49.58997v-4.58997h4.59003l-4.59003,4.58997ZM26,19c-.54999,0-1,.45001-1,1s.45001,1,1,1h25v22h-4v-3c0-.54999-.45001-1-1-1h-8c-.54999,0-1,.45001-1,1v4c0,.54999.45001,1,1,1h5v6H13v-30h9c.54999,0,1-.45001,1-1s-.45001-1-1-1h-13v-5c0-.54999.45001-1,1-1h2v1c0,.34998.07001.69.17999,1h-.17999c-.54999,0-1,.45001-1,1s.45001,1,1,1h6c.54999,0,1-.45001,1-1s-.45001-1-1-1h-.17999c.10999-.31.17999-.65002.17999-1v-1h28v1c0,.34998.07001.69.17999,1h-.17999c-.54999,0-1,.45001-1,1s.45001,1,1,1h6c.54999,0,1-.45001,1-1s-.45001-1-1-1h-.17999c.10999-.31.17999-.65002.17999-1v-1h2c.54999,0,1,.45001,1,1v5h-29Z"/>
  <path d="M17,24v4c0,.55273.44727,1,1,1h8c.55273,0,1-.44727,1-1v-4c0-.55273-.44727-1-1-1h-8c-.55273,0-1,.44727-1,1ZM19,25h6v2h-6v-2Z"/>
  <path d="M30,27h12c1.6543,0,3,1.3457,3,3s-1.3457,3-3,3h-20c-2.75684,0-5,2.24316-5,5s2.24316,5,5,5h9.58594l-.29297.29297c-.39058.39058-.39062,1.02329-.00014,1.41392.3872.38735,1.0295.38484,1.4142.00014l2-2c.39062-.39062.39062-1.02344,0-1.41406l-2-2c-.39062-.39062-1.02344-.39062-1.41406,0s-.39062,1.02344,0,1.41406l.29297.29297h-9.58594c-1.6543,0-3-1.3457-3-3s1.3457-3,3-3h20c2.75684,0,5-2.24316,5-5s-2.24316-5-5-5h-12c-.55273,0-1,.44727-1,1s.44727,1,1,1Z"/>
</svg>