<?xml version="1.0" encoding="UTF-8"?>
<svg id="Outline" xmlns="http://www.w3.org/2000/svg" version="1.1" viewBox="0 0 64 64">
  <!-- Generator: Adobe Illustrator 29.5.1, SVG Export Plug-In . SVG Version: 2.1.0 Build 141)  -->
  <path d="M56.711,49.79s-14-14-14-14c-.39-.39-1.03-.39-1.42,0l-2.51,2.52c-.17-1.16.02-2.37.59-3.42l.34-.62c.13-.24.16-.53.07-.79-.08-.26-.28-.48-.53-.6l-.63-.29c-1.67-.81-2.82-2.39-3.07-4.23l-.09-.7c-.03-.27-.18-.52-.4-.68-.22-.16-.5-.22-.77-.17l-.7.13c-1.82.34-3.68-.27-4.97-1.62l-.49-.51c-.19-.2-.44-.32-.72-.31-.28,0-.54.12-.73.31l-.48.51c-1.28,1.35-3.15,1.95-4.96,1.62l-.69-.13c-.27-.05-.55.01-.78.17-.22.16-.37.41-.4.68l-.09.7c-.25,1.84-1.4,3.42-3.08,4.23l-.63.3c-.25.11-.44.33-.52.59-.09.26-.06.55.07.79l.34.61c.88,1.64.88,3.6,0,5.23l-.34.62c-.13.24-.16.53-.07.79.08.26.27.48.52.59l.63.3c.1.05.2.12.3.17l-9.21,9.21c-.39.39-.39,1.03,0,1.42s1.03.39,1.42,0l11.29-11.3,13.29,13.3c.2.19.45.29.71.29.873,0,1.333-1.089.71-1.71l-4.3-4.29,11.59-11.59,13.29,13.3c.2.19.45.29.71.29.874,0,1.332-1.088.71-1.71ZM22.411,37.5c0-2.76,2.25-5,5-5s5,2.24,5,5-2.24,5-5,5-5-2.24-5-5ZM37.131,39.96l-8.13,8.13-4.04-4.04c.77.29,1.59.45,2.45.45,3.86,0,7-3.14,7-7s-3.14-7-7-7-7,3.14-7,7c0,.86.17,1.69.45,2.45l-.15-.16c-.39-.39-1.03-.39-1.42,0l-1.33,1.33c-.19-.12-.38-.24-.59-.35,1-2.07,1-4.46,0-6.54,2.03-1.08,3.43-3.02,3.84-5.27,2.28.31,4.55-.43,6.21-2.02,1.65,1.6,3.93,2.33,6.2,2.02.41,2.25,1.81,4.19,3.84,5.28-.87,1.79-.98,3.86-.33,5.72Z"/>
  <path d="M11.001,23.5h12c2.206,0,4-1.794,4-4,0-.983-.365-1.922-1.019-2.651.013-.121.019-.236.019-.349,0-2.206-1.794-4-4-4-1.081,0-2.091.431-2.832,1.181-.547-.173-1.126-.224-1.697-.145-.692-1.234-2.01-2.036-3.471-2.036-2.206,0-4,1.794-4,4,0,.042,0,.084.002.126-1.725.444-3.002,2.013-3.002,3.874,0,2.206,1.794,4,4,4ZM10.948,17.499c.049.007.194.021.244.021.328,0,.636-.161.822-.431s.229-.614.113-.922c-.085-.226-.126-.444-.126-.667,0-1.103.897-2,2-2,.896,0,1.683.607,1.913,1.477.074.276.262.508.518.637.254.128.553.143.819.035.583-.231,1.166-.197,1.726.121.464.267,1.056.117,1.34-.336.369-.585.999-.934,1.685-.934,1.103,0,2,.897,2,2,0,.129-.021.286-.065.479-.083.366.047.748.336.989.464.386.729.944.729,1.531,0,1.103-.897,2-2,2h-12c-1.103,0-2-.897-2-2s.897-2,1.946-2.001Z"/>
  <path d="M48.319,25.115c-.4-.041-.809-.004-1.196.104-.621-.586-1.443-.919-2.321-.919-1.874,0-3.399,1.525-3.399,3.4,0,.069.003.139.008.211-.52.611-.809,1.383-.809,2.188,0,1.875,1.525,3.4,3.4,3.4h9.6c1.875,0,3.4-1.525,3.4-3.4,0-1.526-1.012-2.821-2.4-3.25-.027-1.852-1.542-3.35-3.399-3.35-1.196,0-2.278.632-2.883,1.615ZM49.346,27.17c.257-.128.445-.36.519-.638.163-.617.701-1.032,1.337-1.032.771,0,1.399.628,1.399,1.4,0,.154-.028.307-.088.465-.115.308-.072.651.115.921.187.269.493.43.821.43.071,0,.148-.008.151-.016.772,0,1.4.628,1.4,1.399s-.628,1.4-1.4,1.4h-9.6c-.772,0-1.4-.628-1.4-1.4,0-.409.188-.8.513-1.072.289-.241.418-.623.334-.989-.03-.136-.046-.249-.046-.338,0-.772.628-1.4,1.399-1.4.479,0,.921.244,1.179.653.284.452.874.601,1.341.336.393-.225.796-.251,1.205-.084.267.106.564.094.82-.035Z"/>
  <path d="M36.001,18.5h9.6c1.875,0,3.4-1.525,3.4-3.4,0-1.526-1.012-2.821-2.4-3.25-.027-1.852-1.542-3.35-3.399-3.35-1.196,0-2.278.632-2.883,1.615-.402-.04-.808-.004-1.196.104-.621-.586-1.443-.919-2.321-.919-1.874,0-3.399,1.525-3.399,3.4,0,.069.003.139.008.211-.52.611-.809,1.383-.809,2.188,0,1.875,1.525,3.4,3.4,3.4ZM35.114,14.027c.289-.241.418-.623.334-.989-.03-.136-.046-.249-.046-.338,0-.772.628-1.4,1.399-1.4.479,0,.921.244,1.179.653.284.452.874.601,1.341.336.393-.225.796-.25,1.205-.084.267.106.564.094.82-.035.257-.128.445-.36.519-.638.163-.617.701-1.032,1.337-1.032.771,0,1.399.628,1.399,1.4,0,.154-.028.307-.088.465-.115.308-.072.651.115.921.187.269.493.43.821.43.071,0,.148-.008.151-.016.772,0,1.4.628,1.4,1.399s-.628,1.4-1.4,1.4h-9.6c-.772,0-1.4-.628-1.4-1.4,0-.409.188-.8.513-1.072Z"/>
</svg>