<?xml version="1.0" encoding="UTF-8"?>
<svg id="Outline" xmlns="http://www.w3.org/2000/svg" version="1.1" viewBox="0 0 64 64">
  <!-- Generator: Adobe Illustrator 29.0.0, SVG Export Plug-In . SVG Version: 2.1.0 Build 186)  -->
  <path d="M49,11h-1v-1c0-1.65002-1.34998-3-3-3h-17c-.54999,0-1,.45001-1,1s.45001,1,1,1h17c.54999,0,1,.45001,1,1v1h-22c-.27002,0-.52002.10999-.71002.28998l-7,7c-.17999.19-.28998.44-.28998.71002v32h-1c-.54999,0-1-.45001-1-1V10c0-.54999.45001-1,1-1h9c.54999,0,1-.45001,1-1s-.45001-1-1-1h-9c-1.65002,0-3,1.34998-3,3v40c0,1.64996,1.34998,3,3,3h1v1c0,1.64996,1.34998,3,3,3h30c1.65002,0,3-1.35004,3-3V14c0-1.65002-1.34998-3-3-3ZM23,14.40997v3.59003h-3.59003l3.59003-3.59003ZM50,54c0,.54999-.45001,1-1,1h-30c-.54999,0-1-.45001-1-1V20h6c.54999,0,1-.45001,1-1v-6h24c.54999,0,1,.45001,1,1v40Z"/>
  <path d="M28.44531,34.16797l-2.31787,1.54541-.42041-.42041c-.39062-.39062-1.02344-.39062-1.41406,0s-.39062,1.02344,0,1.41406l1,1c.19336.19336.44922.29297.70752.29297.19189,0,.38525-.05518.5542-.16797l3-2c.45947-.30615.5835-.92725.27734-1.38672-.30713-.45996-.92725-.58447-1.38672-.27734Z"/>
  <path d="M25,33c.55225,0,1-.44775,1-1s-.44775-1-1-1h-3c-.55225,0-1,.44775-1,1v8c0,.55225.44775,1,1,1h6.33984c.55225,0,1-.44775,1-1s-.44775-1-1-1h-5.33984v-6h2Z"/>
  <path d="M28.44531,46.16797l-2.31787,1.54541-.42041-.42041c-.39062-.39062-1.02344-.39062-1.41406,0s-.39062,1.02344,0,1.41406l1,1c.19336.19336.44922.29297.70752.29297.19189,0,.38525-.05518.5542-.16797l3-2c.45947-.30615.5835-.92725.27734-1.38672-.30713-.45947-.92725-.58545-1.38672-.27734Z"/>
  <path d="M28.33984,51h-5.33984v-6h2c.55225,0,1-.44775,1-1s-.44775-1-1-1h-3c-.55225,0-1,.44775-1,1v8c0,.55225.44775,1,1,1h6.33984c.55225,0,1-.44775,1-1s-.44775-1-1-1Z"/>
  <path d="M34,33h8c.55225,0,1-.44775,1-1s-.44775-1-1-1h-8c-.55225,0-1,.44775-1,1s.44775,1,1,1Z"/>
  <path d="M46,35h-12c-.55225,0-1,.44775-1,1s.44775,1,1,1h12c.55225,0,1-.44775,1-1s-.44775-1-1-1Z"/>
  <path d="M46,39h-12c-.55225,0-1,.44775-1,1s.44775,1,1,1h12c.55225,0,1-.44775,1-1s-.44775-1-1-1Z"/>
  <path d="M34,45h8c.55225,0,1-.44775,1-1s-.44775-1-1-1h-8c-.55225,0-1,.44775-1,1s.44775,1,1,1Z"/>
  <path d="M46,47h-12c-.55225,0-1,.44775-1,1s.44775,1,1,1h12c.55225,0,1-.44775,1-1s-.44775-1-1-1Z"/>
  <path d="M46,51h-12c-.55225,0-1,.44775-1,1s.44775,1,1,1h12c.55225,0,1-.44775,1-1s-.44775-1-1-1Z"/>
  <path d="M47,22h-7c-.55225,0-1,.44775-1,1s.44775,1,1,1h6v3h-24v-3h14c.55225,0,1-.44775,1-1s-.44775-1-1-1h-15c-.55225,0-1,.44775-1,1v5c0,.55225.44775,1,1,1h26c.55225,0,1-.44775,1-1v-5c0-.55225-.44775-1-1-1Z"/>
</svg>