<?xml version="1.0" encoding="UTF-8"?>
<svg id="Outline" xmlns="http://www.w3.org/2000/svg" version="1.1" viewBox="0 0 64 64">
  <!-- Generator: Adobe Illustrator 29.0.0, SVG Export Plug-In . SVG Version: 2.1.0 Build 186)  -->
  <path d="M54,14h-20.87c-1.82001-1.85004-4.34003-3-7.13-3h-2c-5.51001,0-10,4.48999-10,10v1.81c-.5.44-.84998,1.01996-.96002,1.69-.13995.88.10004,1.76996.67004,2.44.57996.66998,1.40997,1.06,2.28998,1.06h.06c.23999,2.20996,1.28998,4.16998,2.84003,5.60999l-.74005,3.53003-7.04999,1.27997c-2.38.42999-4.10999,2.5-4.10999,4.91998v8.66003c0,.54999.45001,1,1,1h34c.54999,0,1-.45001,1-1v-4h11c1.65002,0,3-1.35004,3-3v-28c0-1.65002-1.34998-3-3-3ZM16,21c0-4.41003,3.59003-8,8-8h2c4.40997,0,8,3.58997,8,8v1.01001c-.03998,0-.07001-.01001-.10999-.01001h-.89001c0-1.65002-1.34998-3-3-3h-10c-1.65002,0-3,1.34998-3,3h-.89001c-.03998,0-.07001.01001-.10999.01001v-1.01001ZM18,27c0-.54999-.45001-1-1-1h-1c-.28998,0-.57001-.13-.76001-.35004-.20001-.22998-.27002-.51996-.22998-.82996.08002-.46002.56-.82001,1.09998-.82001h1.89001c.54999,0,1-.45001,1-1v-1c0-.54999.45001-1,1-1h10c.54999,0,1,.45001,1,1v1c0,.54999.45001,1,1,1h1.89001c.53998,0,1.01996.35999,1.09998.82001.04004.31-.02997.59998-.22998.82996-.19.22003-.47003.35004-.76001.35004h-1c-.54999,0-1,.45001-1,1,0,3.85999-3.14001,7-7,7s-7-3.14001-7-7ZM29.73999,36.85999l-4.73999,2.96002-4.73999-2.96002.41998-1.97998c1.28003.70996,2.75,1.12,4.32001,1.12s3.03998-.41003,4.32001-1.12l.41998,1.97998ZM21.15002,51h-12.15002v-7.66003c0-1.44995,1.03998-2.69,2.46002-2.94995l3.32001-.61005,5.63995,4.03003c.17004.13.38.19.58002.19.09003,0,.16998-.04004.26001-.06l.70996,2.13995-.81995,4.92004ZM21.09003,41.83997l-3.57001-2.54999,1.65997-.31c.15002-.02002.28998-.08997.41003-.17999l3.37,2.09998-1.87.94ZM23.17999,51l.66998-4h2.30005l.66998,4h-3.64001ZM26.28003,45h-2.56006l-.63995-1.92004,1.91998-.95996,1.91998.95996-.63995,1.92004ZM30.40997,38.79999c.12006.09003.26001.15997.41003.17999l1.65997.31-3.57001,2.54999-1.87-.94,3.37-2.09998ZM41,51h-12.15002l-.81995-4.92004.70996-2.13995c.09003.01996.16998.06.26001.06.20001,0,.40997-.06.58002-.19l5.63995-4.03003,3.32001.61005c1.42004.25995,2.46002,1.5,2.46002,2.94995v7.66003ZM42.79999,42c-.5-1.81-1.97998-3.23004-3.90997-3.58002l-7.04999-1.27997-.74005-3.53003c1.55005-1.44,2.60004-3.40002,2.84003-5.60999h.06c.88,0,1.71002-.39001,2.28998-1.06.57001-.67004.81-1.56.67004-2.44-.11005-.67004-.46002-1.25-.96002-1.69v-1.81c0-.34003-.02002-.67004-.04999-1h15.04999v22h-8.20001ZM55,45c0,.54999-.45001,1-1,1h-11v-2h9c.54999,0,1-.45001,1-1v-24c0-.54999-.45001-1-1-1h-16.46002c-.21997-.70001-.52997-1.37-.88995-2h19.34998c.54999,0,1,.45001,1,1v28Z"/>
</svg>