<?xml version="1.0" encoding="UTF-8"?>
<svg id="Outline" xmlns="http://www.w3.org/2000/svg" version="1.1" viewBox="0 0 64 64">
  <!-- Generator: Adobe Illustrator 29.0.0, SVG Export Plug-In . SVG Version: 2.1.0 Build 186)  -->
  <path d="M54,11h-10c-.54999,0-1,.45001-1,1s.45001,1,1,1h10c.54999,0,1,.45001,1,1v20h-2v-3c0-.54999-.45001-1-1-1h-6c-.54999,0-1,.45001-1,1v3h-11.52002c.22003-.64001.39001-1.31.46002-2h.06c.88,0,1.71002-.39001,2.28998-1.06.57001-.67004.81-1.56.67004-2.44-.11005-.67004-.46002-1.25-.96002-1.69v-1.81c0-5.51001-4.48999-10-10-10v-1c0-.54999.45001-1,1-1h9c.54999,0,1-.45001,1-1s-.45001-1-1-1h-9c-1.65002,0-3,1.34998-3,3v1c-5.51001,0-10,4.48999-10,10v1.81c-.5.44-.84998,1.01996-.96002,1.69-.13995.88.10004,1.76996.67004,2.44.57996.66998,1.40997,1.06,2.28998,1.06h.06c.23999,2.20996,1.28998,4.16998,2.84003,5.60999l-.74005,3.53003-7.04999,1.27997c-2.38.42999-4.10999,2.5-4.10999,4.91998v4.66003c0,.54999.45001,1,1,1h34c.54999,0,1-.45001,1-1v-4.66003c0-2.41998-1.72998-4.48999-4.10999-4.91998l-7.04999-1.27997-.24005-1.14001h22.40002c1.65002,0,3-1.35004,3-3V14c0-1.65002-1.34998-3-3-3ZM47,32h4v2h-4v-2ZM16,25c0-4.41003,3.59003-8,8-8h2c4.40997,0,8,3.58997,8,8v1.01001c-.03998,0-.07001-.01001-.10999-.01001h-.89001c0-1.65002-1.34998-3-3-3h-10c-1.65002,0-3,1.34998-3,3h-.89001c-.03998,0-.07001.01001-.10999.01001v-1.01001ZM18,31c0-.54999-.45001-1-1-1h-1c-.28998,0-.57001-.13-.76001-.35004-.20001-.22998-.27002-.51996-.22998-.82996.08002-.46002.56-.82001,1.09998-.82001h1.89001c.54999,0,1-.45001,1-1v-1c0-.54999.45001-1,1-1h10c.54999,0,1,.45001,1,1v1c0,.54999.45001,1,1,1h1.89001c.53998,0,1.01996.35999,1.09998.82001.04004.31-.02997.59998-.22998.82996-.19.22003-.47003.35004-.76001.35004h-1c-.54999,0-1,.45001-1,1,0,3.85999-3.14001,7-7,7s-7-3.14001-7-7ZM29.90002,41.59998c-2.94,1.94-6.86005,1.94-9.80005,0l.58002-2.71997c1.28003.70996,2.75,1.12,4.32001,1.12s3.03998-.41003,4.32001-1.12l.58002,2.71997ZM36,51h-8v-2h8v2ZM38.53998,44.39001c1.42004.25995,2.46002,1.5,2.46002,2.94995v3.66003h-3v-3c0-.54999-.45001-1-1-1h-10c-.54999,0-1,.45001-1,1v3H9v-3.66003c0-1.44995,1.03998-2.69,2.46002-2.94995l7.25-1.32001c1.85999,1.32001,4.07001,1.98999,6.28998,1.98999s4.42999-.66998,6.28998-1.98999l7.25,1.32001ZM55,37c0,.54999-.45001,1-1,1h-22.82001l-.08002-.39001c.52002-.47998.98004-1.02002,1.37-1.60999h22.53003v1Z"/>
  <path d="M52,15h-16c-.55225,0-1,.44775-1,1s.44775,1,1,1h16c.55225,0,1-.44775,1-1s-.44775-1-1-1Z"/>
  <path d="M52,19h-8c-.55225,0-1,.44775-1,1s.44775,1,1,1h8c.55225,0,1-.44775,1-1s-.44775-1-1-1Z"/>
  <path d="M52,23h-12c-.55225,0-1,.44775-1,1s.44775,1,1,1h12c.55225,0,1-.44775,1-1s-.44775-1-1-1Z"/>
  <circle cx="40" cy="12" r="1"/>
</svg>