<?xml version="1.0" encoding="UTF-8"?>
<svg id="Outline" xmlns="http://www.w3.org/2000/svg" version="1.1" viewBox="0 0 64 64">
  <!-- Generator: Adobe Illustrator 29.0.0, SVG Export Plug-In . SVG Version: 2.1.0 Build 186)  -->
  <path d="M55.60352,32.0874c.12939-.41895.19629-.8584.19629-1.30176,0-1.71973-.99902-3.24805-2.46094-3.89111-.16943-.9248-.68115-1.75-1.43994-2.28662-.88818-.62842-1.99805-.77832-3.04443-.40771-1.13428.3999-1.95557,1.42188-2.1875,2.69189-.08374.03668-.16022.08612-.24084.12848-.41711-.94843-1.15662-1.71692-2.08679-2.1236-.16846-.92725-.68164-1.75537-1.44287-2.29346-.88672-.62793-1.99512-.77637-3.03711-.40723-1.13721.39844-1.96045,1.42188-2.19287,2.69775-.9328.40607-1.67438,1.17596-2.09241,2.12653-.07819-.04108-.15216-.08929-.23328-.12506-.22168-1.25049-1.04834-2.29102-2.19531-2.69531-1.0459-.37061-2.15625-.2207-3.04443.40771-.74902.52979-1.25732,1.34082-1.43311,2.28369-.08405.0368-.16083.08636-.24176.12885-.41675-.94769-1.1554-1.71558-2.08441-2.1225-.2207-1.25488-1.0498-2.29785-2.19824-2.70068-1.0459-.36865-2.15283-.22119-3.04004.40625-.75049.53076-1.25977,1.34326-1.43555,2.29004-.93353.40582-1.67566,1.17603-2.09387,2.12701-.07819-.04108-.15216-.08929-.23328-.12506-.22168-1.25049-1.04834-2.29102-2.19531-2.69531-1.0459-.37061-2.15625-.2207-3.04443.40771-.74902.52979-1.25732,1.34082-1.43311,2.28369-1.46533.64111-2.46777,2.17188-2.46777,3.89404,0,.44336.06689.88281.19629,1.30176-.87695.78955-1.39648,1.94922-1.39648,3.19824,0,1.24854.51904,2.4082,1.396,3.19775-.16699.53857-.22852,1.10986-.17969,1.68799.18213,2.14697,1.97656,3.82861,4.08594,3.82861.24249,0,.47394-.04333.69775-.10638v7.10638h-5c-.55225,0-1,.44775-1,1v4c0,.55225.44775,1,1,1h48c.55225,0,1-.44775,1-1v-4c0-.55225-.44775-1-1-1h-5v-7.10638c.22382.06305.45526.10638.69775.10638,2.10938,0,3.90381-1.68164,4.08594-3.82861.04883-.57812-.0127-1.14941-.17969-1.68799.87695-.78955,1.396-1.94922,1.396-3.19775,0-1.24902-.51953-2.40869-1.39648-3.19824ZM38.80713,26.61865c.4624-.09814.79297-.57617.79297-1.04883,0-.68506.37842-1.2959.92334-1.48682.55225-.1958.96729-.02441,1.21826.15332.41211.2915.6582.79004.6582,1.40381,0,.47266.33057.88037.79297.97852.87701.18561,1.52094,1.00824,1.59363,1.99481-.36829.64111-.5863,1.38397-.5863,2.17218,0,.44336.06689.88281.19629,1.30176-.87695.78955-1.39648,1.94922-1.39648,3.19824,0,1.24854.51904,2.4082,1.396,3.19775-.07977.25726-.13202.52271-.16315.79205-.39288.45044-.9444.72455-1.53265.72455-.38623,0-.7002-.36768-.7002-.81982v-8.18018c0-.55225-.44775-1-1-1s-1,.44775-1,1v8.18018c0,.45215-.31396.81982-.7002.81982-.51172,0-1.0083-.19971-1.39648-.56006-.05383-.05054-.08856-.10284-.13422-.15497-.03088-.27271-.08441-.54126-.1651-.80157.87695-.78955,1.396-1.94922,1.396-3.19775,0-1.24902-.51953-2.40869-1.39648-3.19824.12939-.41895.19629-.8584.19629-1.30176,0-.78845-.21802-1.53162-.58649-2.17279.07129-.98352.71576-1.80859,1.59381-1.9942ZM33,51v-7.10638c.22382.06305.45526.10638.69775.10638,1.64075,0,3.07996-1.02319,3.72906-2.48566.57806.30695,1.21399.48566,1.87299.48566.24365,0,.47546-.0448.7002-.10834v9.10834h-7ZM24,51v-9.10834c.22473.06354.45654.10834.7002.10834.65869,0,1.29437-.17865,1.87286-.48596.64905,1.46265,2.08832,2.48596,3.72919,2.48596.24249,0,.47394-.04333.69775-.10638v7.10638h-7ZM29.81152,28.61328c.45996-.09961.78857-.57129.78857-1.04199,0-.54248.24512-1.04004.65625-1.33105.25342-.17822.67188-.34766,1.22412-.1543.5415.19092.91943.80176.91943,1.5498,0,.4707.32861.87793.78857.97754.93359.20166,1.61133,1.11523,1.61133,2.17236,0,.41455-.10059.80371-.29834,1.15771-.12988.23193-.16211.50684-.08887.7627.07275.25586.24512.47217.47803.60107.68408.37793,1.10938,1.13574,1.10938,1.97852s-.42529,1.60107-1.10986,1.979c-.23291.12891-.40479.34521-.47803.60156-.07275.25586-.04053.53076.08936.7627.23047.41113.33057.88623.28906,1.37354-.09473,1.12012-1.01416,1.99756-2.09277,1.99756-.38477,0-.69775-.36719-.69775-.81885v-8.18115c0-.55225-.44775-1-1-1s-1,.44775-1,1v8.18115c0,.45166-.31299.81885-.69775.81885-1.07861,0-1.99805-.87744-2.09277-1.99756-.0415-.4873.05859-.9624.28906-1.37354.12988-.23193.16211-.50684.08936-.7627-.07324-.25635-.24512-.47266-.47803-.60156-.68457-.37793-1.10986-1.13623-1.10986-1.979s.42529-1.60059,1.10938-1.97852c.23291-.12891.40527-.34521.47803-.60107.07324-.25586.04102-.53076-.08887-.7627-.19775-.354-.29834-.74316-.29834-1.15771,0-1.05713.67773-1.9707,1.61133-2.17236ZM20.80713,26.61865c.4624-.09814.79297-.57617.79297-1.04883,0-.54346.24609-1.04199.6582-1.3335.25146-.17725.66602-.34863,1.22119-.15234.54199.18994.92041.80078.92041,1.55615,0,.47266.33057.88037.79297.97852.87677.18567,1.52081,1.0083,1.59363,1.99469-.36829.64111-.5863,1.38403-.5863,2.1723,0,.44336.06689.88281.19629,1.30176-.87695.78955-1.39648,1.94922-1.39648,3.19824,0,1.24854.51904,2.4082,1.396,3.19775-.08075.26044-.13428.52905-.16516.80182-.04498.05133-.07959.10339-.13171.15228-.39062.36279-.88721.5625-1.39893.5625-.38623,0-.7002-.36768-.7002-.81982v-8.18018c0-.55225-.44775-1-1-1s-1,.44775-1,1v8.18018c0,.45215-.31396.81982-.7002.81982-.58826,0-1.13977-.27411-1.53265-.72455-.03113-.26935-.08337-.53479-.16315-.79205.87695-.78955,1.396-1.94922,1.396-3.19775,0-1.24902-.51953-2.40869-1.39648-3.19824.12939-.41895.19629-.8584.19629-1.30176,0-.78845-.21802-1.53156-.58649-2.17273.07117-.98358.71552-1.80872,1.59381-1.99426ZM12.30225,42c-1.07861,0-1.99805-.87744-2.09277-1.99756-.0415-.4873.05859-.9624.28906-1.37354.12988-.23193.16211-.50684.08936-.7627-.07324-.25635-.24512-.47266-.47803-.60156-.68457-.37793-1.10986-1.13623-1.10986-1.979s.42529-1.60059,1.10938-1.97852c.23291-.12891.40527-.34521.47803-.60107.07324-.25586.04102-.53076-.08887-.7627-.19775-.354-.29834-.74316-.29834-1.15771,0-1.05713.67773-1.9707,1.61133-2.17236.45996-.09961.78857-.57129.78857-1.04199,0-.54248.24512-1.04004.65625-1.33105.25293-.17822.67236-.34766,1.22412-.1543.5415.19092.91943.80176.91943,1.5498,0,.4707.32861.87793.78857.97754.93359.20166,1.61133,1.11523,1.61133,2.17236,0,.41455-.10059.80371-.29834,1.15771-.12988.23193-.16211.50684-.08887.7627.07275.25586.24512.47217.47803.60107.68408.37793,1.10938,1.13574,1.10938,1.97852s-.42529,1.60107-1.10986,1.979c-.23291.12891-.40479.34521-.47803.60156-.07275.25586-.04053.53076.08936.7627.23047.41113.33057.88623.28906,1.37354-.09473,1.12012-1.01416,1.99756-2.09277,1.99756-.38477,0-.69775-.36719-.69775-.81885v-8.18115c0-.55225-.44775-1-1-1s-1,.44775-1,1v8.18115c0,.45166-.31299.81885-.69775.81885ZM15,43.89362c.22382.06305.45526.10638.69775.10638,1.63501,0,3.07056-1.01562,3.72296-2.46985.57349.30402,1.2168.46985,1.87909.46985.24365,0,.47546-.0448.7002-.10834v9.10834h-7v-7.10638ZM55,55H9v-2h46v2ZM42,51v-9.10834c.22473.06354.45654.10834.7002.10834.66229,0,1.3056-.16583,1.87909-.46985.6524,1.45422,2.08795,2.46985,3.72296,2.46985.24249,0,.47394-.04333.69775-.10638v7.10638h-7ZM53.89014,37.26465c-.23291.12891-.40479.34521-.47803.60156-.07275.25586-.04053.53076.08936.7627.23047.41113.33057.88623.28906,1.37354-.09473,1.12012-1.01416,1.99756-2.09277,1.99756-.38477,0-.69775-.36719-.69775-.81885v-8.18115c0-.55225-.44775-1-1-1s-1,.44775-1,1v8.18115c0,.45166-.31299.81885-.69775.81885-1.07861,0-1.99805-.87744-2.09277-1.99756-.0415-.4873.05859-.9624.28906-1.37354.12988-.23193.16211-.50684.08936-.7627-.07324-.25635-.24512-.47266-.47803-.60156-.68457-.37793-1.10986-1.13623-1.10986-1.979s.42529-1.60059,1.10938-1.97852c.23291-.12891.40527-.34521.47803-.60107.07324-.25586.04102-.53076-.08887-.7627-.19775-.354-.29834-.74316-.29834-1.15771,0-1.05713.67773-1.9707,1.61133-2.17236.45996-.09961.78857-.57129.78857-1.04199,0-.68359.37793-1.29443.91943-1.48535.55664-.19336.97168-.02393,1.22412.1543.41113.29102.65625.78857.65625,1.39551,0,.4707.32861.87793.78857.97754.93359.20166,1.61133,1.11523,1.61133,2.17236,0,.41455-.10059.80371-.29834,1.15771-.12988.23193-.16211.50684-.08887.7627.07275.25586.24512.47217.47803.60107.68408.37793,1.10938,1.13574,1.10938,1.97852s-.42529,1.60107-1.10986,1.979Z"/>
  <path d="M10,21h8c1.6543,0,3-1.3457,3-3,0-.35059-.06055-.68701-.17139-1h.17139c1.6543,0,3-1.3457,3-3s-1.3457-3-3-3h-8c-1.6543,0-3,1.3457-3,3,0,.35059.06055.68701.17139,1h-.17139c-1.6543,0-3,1.3457-3,3s1.3457,3,3,3ZM10,17h3c.55225,0,1-.44775,1-1s-.44775-1-1-1c-.55127,0-1-.44873-1-1s.44873-1,1-1h8c.55127,0,1,.44873,1,1s-.44873,1-1,1h-3c-.55225,0-1,.44775-1,1s.44775,1,1,1c.55127,0,1,.44873,1,1s-.44873,1-1,1h-8c-.55127,0-1-.44873-1-1s.44873-1,1-1Z"/>
  <path d="M40,14c0,1.6543,1.3457,3,3,3h8c1.6543,0,3-1.3457,3-3,0-.35059-.06055-.68701-.17139-1h.17139c1.6543,0,3-1.3457,3-3s-1.3457-3-3-3h-8c-1.6543,0-3,1.3457-3,3,0,.35059.06055.68701.17139,1h-.17139c-1.6543,0-3,1.3457-3,3ZM46,13c.55225,0,1-.44775,1-1s-.44775-1-1-1c-.55127,0-1-.44873-1-1s.44873-1,1-1h8c.55127,0,1,.44873,1,1s-.44873,1-1,1h-3c-.55225,0-1,.44775-1,1s.44775,1,1,1c.55127,0,1,.44873,1,1s-.44873,1-1,1h-8c-.55127,0-1-.44873-1-1s.44873-1,1-1h3Z"/>
  <path d="M32,11c.55225,0,1-.44775,1-1,0-.55127.44873-1,1-1s1,.44873,1,1c0,.55225.44775,1,1,1s1-.44775,1-1c0-.55127.44873-1,1-1s1,.44873,1,1c0,.55225.44775,1,1,1s1-.44775,1-1c0-1.6543-1.3457-3-3-3-.76758,0-1.46875.29004-2,.76562-.53125-.47559-1.23242-.76562-2-.76562-1.6543,0-3,1.3457-3,3,0,.55225.44775,1,1,1Z"/>
  <path d="M26,19c.55225,0,1-.44775,1-1,0-.55127.44873-1,1-1s1,.44873,1,1c0,.55225.44775,1,1,1s1-.44775,1-1c0-.55127.44873-1,1-1s1,.44873,1,1c0,.55225.44775,1,1,1s1-.44775,1-1c0-1.6543-1.3457-3-3-3-.76758,0-1.46875.29004-2,.76562-.53125-.47559-1.23242-.76562-2-.76562-1.6543,0-3,1.3457-3,3,0,.55225.44775,1,1,1Z"/>
</svg>