<?xml version="1.0" encoding="UTF-8"?>
<svg id="Outline" xmlns="http://www.w3.org/2000/svg" version="1.1" viewBox="0 0 64 64">
  <!-- Generator: Adobe Illustrator 29.5.1, SVG Export Plug-In . SVG Version: 2.1.0 Build 141)  -->
  <path d="M52,37c.55,0,1-.45,1-1v-14c0-1.65-1.35-3-3-3h-1v-1c0-1.55-1.19-2.82-2.7-2.97l-11.38-5.69c-.3-1.34-1.49-2.34-2.92-2.34s-2.62,1-2.92,2.34l-11.38,5.69c-1.51.15-2.7,1.42-2.7,2.97v1h-1c-1.65,0-3,1.35-3,3v32c0,1.65,1.35,3,3,3h36c1.65,0,3-1.35,3-3v-14c0-.55-.45-1-1-1s-1,.45-1,1v14c0,.55-.45,1-1,1H14c-.55,0-1-.45-1-1v-25h3c.55,0,1-.45,1-1s-.45-1-1-1h-3v-5c0-.55.45-1,1-1h36c.55,0,1,.45,1,1v5h-31c-.55,0-1,.45-1,1s.45,1,1,1h31v7c0,.55.45,1,1,1ZM32,9c.55,0,1,.45,1,1s-.45,1-1,1-1-.45-1-1,.45-1,1-1ZM19,19h-2v-1c0-.55.45-1,1-1s1,.45,1,1v1ZM43,18v1h-22v-1c0-.77-.3-1.46-.78-1.99l9.16-4.58c.51.93,1.49,1.57,2.62,1.57s2.11-.64,2.62-1.57l9.16,4.58c-.48.53-.78,1.22-.78,1.99ZM47,19h-2v-1c0-.55.45-1,1-1s1,.45,1,1v1Z"/>
  <path d="M31,32c0-.553-.448-1-1-1h-4c-.552,0-1,.447-1,1v4c0,.553.448,1,1,1h4c.552,0,1-.447,1-1v-4ZM29,35h-2v-2h2v2Z"/>
  <path d="M23,40c0-.553-.448-1-1-1h-4c-.552,0-1,.447-1,1v4c0,.553.448,1,1,1h4c.552,0,1-.447,1-1v-4ZM21,43h-2v-2h2v2Z"/>
  <path d="M31,40c0-.553-.448-1-1-1h-4c-.552,0-1,.447-1,1v4c0,.553.448,1,1,1h4c.552,0,1-.447,1-1v-4ZM29,43h-2v-2h2v2Z"/>
  <path d="M39,32c0-.553-.448-1-1-1h-4c-.552,0-1,.447-1,1v4c0,.553.448,1,1,1h4c.552,0,1-.447,1-1v-4ZM37,35h-2v-2h2v2Z"/>
  <path d="M47,32c0-.553-.448-1-1-1h-4c-.552,0-1,.447-1,1v4c0,.553.448,1,1,1h4c.552,0,1-.447,1-1v-4ZM45,35h-2v-2h2v2Z"/>
  <path d="M38.832,40.445c-.307-.46-.928-.584-1.387-.277l-2.318,1.545-.42-.42c-.391-.391-1.023-.391-1.414,0s-.391,1.023,0,1.414l1,1c.193.193.449.293.708.293.192,0,.385-.055.554-.168l3-2c.459-.307.583-.927.277-1.387Z"/>
  <path d="M22,47h-4c-.552,0-1,.447-1,1v4c0,.553.448,1,1,1h4c.552,0,1-.447,1-1v-4c0-.553-.448-1-1-1ZM21,51h-2v-2h2v2Z"/>
  <path d="M30,47h-4c-.552,0-1,.447-1,1v4c0,.553.448,1,1,1h4c.552,0,1-.447,1-1v-4c0-.553-.448-1-1-1ZM29,51h-2v-2h2v2Z"/>
  <path d="M37.445,48.168l-2.318,1.545-.42-.42c-.391-.391-1.023-.391-1.414,0s-.391,1.023,0,1.414l1,1c.193.193.449.293.708.293.192,0,.385-.055.554-.168l3-2c.459-.307.583-.927.277-1.387-.307-.46-.928-.584-1.387-.277Z"/>
  <path d="M45.445,40.168l-2.318,1.545-.42-.42c-.391-.391-1.023-.391-1.414,0s-.391,1.023,0,1.414l1,1c.193.193.449.293.708.293.192,0,.385-.055.554-.168l3-2c.459-.307.583-.927.277-1.387-.307-.46-.927-.584-1.387-.277Z"/>
</svg>