<?xml version="1.0" encoding="UTF-8"?>
<svg id="Outline" xmlns="http://www.w3.org/2000/svg" version="1.1" viewBox="0 0 64 64">
  <!-- Generator: Adobe Illustrator 29.3.1, SVG Export Plug-In . SVG Version: 2.1.0 Build 151)  -->
  <path d="M57,12c0-1.65002-1.34998-3-3-3h-.17999c-.41998-1.16003-1.52002-2-2.82001-2h-2c-.54999,0-1,.45001-1,1v4c0,.54999.45001,1,1,1h2c1.29999,0,2.40002-.84003,2.82001-2h.17999c.54999,0,1,.45001,1,1v9.59998c0,3.5-1.47998,6.77002-4.04999,9.10999l-.95001-.70996c-.44-.33002-1.07001-.23999-1.40002.20001l-1.19995,1.59998c-.56.75-1.46002,1.20001-2.40002,1.20001s-1.84003-.45001-2.40002-1.20001l-1.19995-1.59998c-.33002-.44-.96002-.53003-1.40002-.20001l-.95001.70996c-2.57001-2.33997-4.04999-5.60999-4.04999-9.10999v-9.59998c0-.54999.45001-1,1-1h.17999c.41998,1.15997,1.52002,2,2.82001,2h2c.54999,0,1-.45001,1-1v-4c0-.54999-.45001-1-1-1h-2c-1.29999,0-2.40002.83997-2.82001,2h-.17999c-1.65002,0-3,1.34998-3,3v9.59998c0,3.94,1.60999,7.64001,4.42999,10.33002l-.63.46997c-.44.33002-.52997.96002-.20001,1.40002l1.70001,2.27002c1.20001,1.58997,2.12,3.35999,2.75,5.25.63,1.88995.95001,3.84998.95001,5.83997v1.84003c0,.54999.45001,1,1,1h.90997c-.47998,2.82996-2.94,5-5.90997,5h-1c-3.31,0-6-2.69-6-6v-6c0-.54999-.45001-1-1-1s-1,.45001-1,1v6c0,4.40997,3.59003,8,8,8h1c4.07001,0,7.44-3.06,7.92999-7h1.07001c.54999,0,1-.45001,1-1v-1.84003c0-1.98999.32001-3.95001.95001-5.83997.63-1.89001,1.54999-3.66003,2.75-5.25l1.70001-2.27002c.32996-.44.23999-1.07001-.20001-1.40002l-.63-.46997c2.82001-2.69,4.42999-6.39001,4.42999-10.33002v-9.59998ZM51,11h-1v-2h1c.54999,0,1,.45001,1,1s-.45001,1-1,1ZM39,9h1v2h-1c-.54999,0-1-.45001-1-1s.45001-1,1-1ZM50.09998,34.87c-1.32996,1.76001-2.34998,3.71997-3.04999,5.81-.70001,2.09998-1.04999,4.27997-1.04999,6.47998v.84003h-2v-.84003c0-2.20001-.34998-4.38-1.04999-6.47998-.70001-2.09003-1.72003-4.04999-3.04999-5.81l-1.10004-1.47003,1.60004-1.19995.59998.79999c.94,1.25,2.42999,2,4,2s3.06-.75,4-2l.59998-.79999,1.60004,1.19995-1.10004,1.47003Z"/>
  <path d="M11,50c0,1.6543,1.3457,3,3,3s3-1.3457,3-3-1.3457-3-3-3-3,1.3457-3,3ZM15,50c0,.55127-.44873,1-1,1s-1-.44873-1-1,.44873-1,1-1,1,.44873,1,1Z"/>
  <path d="M42,19h-2c-.55225,0-1,.44775-1,1v4c0,.55225.44775,1,1,1h2v2c0,.55225.44775,1,1,1h4c.55225,0,1-.44775,1-1v-2h2c.55225,0,1-.44775,1-1v-4c0-.55225-.44775-1-1-1h-2v-2c0-.55225-.44775-1-1-1h-4c-.55225,0-1,.44775-1,1v2ZM43,21c.55225,0,1-.44775,1-1v-2h2v2c0,.55225.44775,1,1,1h2v2h-2c-.55225,0-1,.44775-1,1v2h-2v-2c0-.55225-.44775-1-1-1h-2v-2h2Z"/>
  <path d="M29,35c0,.55225.44775,1,1,1s1-.44775,1-1v-3c0-4.9624-4.0376-9-9-9-2.396,0-4.65674.93408-6.36963,2.63525-1.69629,1.70801-2.63037,3.96875-2.63037,6.36475v5.18427c-1.1615.41412-2,1.51379-2,2.81573v3.685c-2.36078,1.12628-4,3.52966-4,6.315,0,3.85986,3.14014,7,7,7s7-3.14014,7-7c0-2.78534-1.63922-5.18872-4-6.315v-3.685c0-1.30194-.8385-2.40161-2-2.81573v-5.18427c0-1.86475.72803-3.62451,2.04443-4.95068,1.33105-1.32129,3.09082-2.04932,4.95557-2.04932,3.85986,0,7,3.14014,7,7v3ZM19,50c0,2.75684-2.24316,5-5,5s-5-2.24316-5-5,2.24316-5,5-5,5,2.24316,5,5ZM14,43c-.34039,0-.67249.03265-1,.07983v-3.07983c0-.55127.44873-1,1-1s1,.44873,1,1v3.07983c-.32751-.04718-.65961-.07983-1-.07983Z"/>
  <circle cx="30" cy="39" r="1"/>
</svg>